<svg xmlns="http://www.w3.org/2000/svg" xmlns:xlink="http://www.w3.org/1999/xlink" xmlns:fi="http://pattern.flaticon.com/" x="0" y="0" width="1000" height="500" viewBox="0 0 1583.710407239819 791.8552036199095"><rect x="0px" y="0px" width="100%" height="100%" opacity="1" fill="#e5dcbb"/><defs><path d="m512 55.964844c-32.207031 1.484375-31.503906 1.363281-35.144531 1.667968l19.074219-54.472656s-59.539063 21.902344-74.632813 25.820313c-39.640625-35.628907-98.5625-37.203125-140.6875-11.3125-34.496094 21.207031-53.011719 57.625-46.835937 100.191406-67.136719-9.316406-123.703126-41.140625-168.363282-94.789063l-14.125-16.964843-10.554687 19.382812c-13.339844 24.492188-17.769531 52.496094-12.476563 78.851563 2.171875 10.8125 5.863282 21.125 10.976563 30.78125l-12.117188-4.695313-1.4375 20.246094c-1.457031 20.566406 5.390625 44.574219 18.320313 64.214844 3.640625 5.53125 8.328125 11.605469 14.269531 17.597656l-6.261719-.960937 7.640625 23.199218c10.042969 30.480469 30.902344 54.0625 57.972657 67.171875-27.035157 11.472657-48.875 18.792969-84.773438 30.601563l-32.84375 10.796875 30.335938 16.585937c11.566406 6.324219 52.4375 27.445313 92.820312 33.78125 89.765625 14.078125 190.832031 2.613282 258.871094-58.664062 57.308594-51.613282 76.113281-125.03125 72.207031-201.433594-.589844-11.566406 2.578125-22.605469 8.921875-31.078125 12.707031-16.964844 48.765625-66.40625 48.84375-66.519531zm-72.832031 48.550781c-10.535157 14.066406-15.8125 32.03125-14.867188 50.578125 3.941407 77.066406-17.027343 136.832031-62.328125 177.628906-52.917968 47.660156-138.273437 66.367188-234.171875 51.324219-17.367187-2.722656-35.316406-8.820313-50.171875-14.910156 30.097656-10.355469 53.339844-19.585938 90.875-37.351563l52.398438-24.800781-57.851563-3.703125c-27.710937-1.773438-50.785156-15.203125-64.96875-37.007812 7.53125-.4375 14.792969-1.65625 22.023438-3.671876l55.175781-15.367187-55.636719-13.625c-27.035156-6.621094-42.445312-22.796875-50.613281-35.203125-5.363281-8.152344-8.867188-16.503906-10.96875-24.203125 5.578125 1.496094 12.082031 2.5625 22.570312 3.601563l51.496094 5.09375-40.800781-31.828126c-29.398437-22.929687-41.179687-57.378906-32.542969-90.496093 91.75 95.164062 199.476563 88.011719 210.320313 90.527343-2.386719-23.183593-2.449219-23.238281-3.074219-25.445312-13.886719-49.089844 16.546875-74.015625 30.273438-82.453125 28.671874-17.621094 74.183593-20.277344 105.707031 8.753906 6.808593 6.265625 16.015625 8.730469 24.632812 6.589844 7.734375-1.921875 14.082031-3.957031 20.296875-6.171875l-12.9375 36.945312 16.515625.011719c-3.117187 4.179688-6.855469 9.183594-11.351562 15.183594zm0 0" transform="matrix(-0.07435357642179537 -0.01784485831421064 -0.01784485831421064 0.07435357642179537 118.77761210099224 178.55303227617682)" id="L1_6" fill="#b0b0b0"/><g transform="matrix(0.05248057878035548 -0.005524271511605791 0.005524271511605791 0.05248057878035548 11.150758325257915 336.97918533920006)" id="L1_9"><path d="m75 512h362c41.355469 0 75-33.644531 75-75v-362c0-41.355469-33.644531-75-75-75h-362c-41.355469 0-75 33.644531-75 75v362c0 41.355469 33.644531 75 75 75zm-45-437c0-24.8125 20.1875-45 45-45h362c24.8125 0 45 20.1875 45 45v362c0 24.8125-20.1875 45-45 45h-362c-24.8125 0-45-20.1875-45-45zm0 0" fill="#a6a6a6"/><path d="m256 391c74.4375 0 135-60.5625 135-135s-60.5625-135-135-135-135 60.5625-135 135 60.5625 135 135 135zm0-240c57.898438 0 105 47.101562 105 105s-47.101562 105-105 105-105-47.101562-105-105 47.101562-105 105-105zm0 0" fill="#a6a6a6"/><path d="m406 151c24.8125 0 45-20.1875 45-45s-20.1875-45-45-45-45 20.1875-45 45 20.1875 45 45 45zm0-60c8.269531 0 15 6.730469 15 15s-6.730469 15-15 15-15-6.730469-15-15 6.730469-15 15-15zm0 0" fill="#a6a6a6"/></g><g transform="matrix(0.07873117178678513 0 0 0.07873117178678513 167.72736314684153 -7.390638068969224)" id="L1_10"><path d="M245.2,293.721h-58.7c-2.1,0-3.9-1.8-3.9-3.9v-155.6c0-2.1,1.8-3.9,3.9-3.9h58.7    c2.1,0,3.9,1.8,3.9,3.9v155.6C249.1,291.921,247.3,293.721,245.2,293.721z" id="L1_11" fill="#4ab2f7"/><path d="M458.9,345.421c1.8-4.7-0.4-9.9-5.1-11.8c-4.7-1.8-9.9,0.4-11.8,5.1c-6.9,17.5-24.1,29.3-42.9,29.3H209.4    c-2.3,0-4.6,0.9-6.3,2.5l-86.6,82.9v-76.4c0-2.4-1-4.7-2.7-6.4c-1.7-1.7-4-2.7-6.4-2.7H64.2c-25.4,0-46.1-20.7-46.1-46.1v-204.3    c0-25.4,20.7-46.1,46.1-46.1h205.5c5,0,9.1-4.1,9.1-9.1s-4.1-9.1-9.1-9.1H64.2c-35.4,0-64.2,28.8-64.2,64.2v204.4    c0,35.4,28.8,64.2,64.2,64.2h34.2v88.6c0,3.6,2.2,6.9,5.5,8.3c1.1,0.5,2.4,0.7,3.6,0.7c2.3,0,4.6-0.9,6.3-2.5l99.3-95.1h186.1    C425.3,386.121,449.3,369.721,458.9,345.421z" fill="#000000"/><path d="M488.8,158.821c2.7-16.9-4.3-34.1-17.8-43.8c-7.7-5.5-16.7-8.4-26.1-8.4h-66.3v-47.4c0-21-6.2-36.2-18.4-45.1    c-19.3-14.2-45.7-6.1-46.8-5.8c-3.8,1.2-6.3,4.7-6.3,8.6v54.7c0,42.1-49.1,56.5-51.1,57.1c-0.2,0.1-0.4,0.2-0.6,0.2    c-3-4.6-8.2-7.7-14.2-7.7h-50.8c-9.3,0-16.9,7.6-16.9,16.9v147.7c0,9.3,7.6,16.9,16.9,16.9h50.8c4.7,0,8.9-1.9,12-5    c8.1,8.1,19.3,13.1,31.7,13.1h133.8c30.3,0,49.6-15.9,53.1-43.6L488.8,158.821z M240,284.621h-48.3v-145.2H240V284.621z     M470.9,156.021l-17.1,108.6c0,0.1,0,0.2,0,0.3c-2.3,18.5-14.1,27.9-35.1,27.9H284.9c-14.8,0-26.8-12-26.8-26.8v-119.5    c0.9,0,1.8,0,2.7-0.3c2.6-0.7,64.4-18.6,64.4-74.6v-47.3c6.6-0.9,16.8-1.1,24.4,4.4c7.3,5.4,10.9,15.6,10.9,30.5v56.5    c0,5,4.1,9.1,9.1,9.1H445c5.6,0,11,1.7,15.5,5C468.4,135.521,472.5,145.821,470.9,156.021z" fill="#000000"/></g><g transform="matrix(0.0739435820348942 0.014311660795939938 -0.014311660795939938 0.0739435820348942 139.7314165430307 146.39451532553406)" id="L1_13"><path d="m512 125.172v-29.172c0-6-3.576-11.423-9.091-13.787l-70-30c-1.867-.8-3.878-1.213-5.909-1.213h-25v-35c0-8.284-6.716-15-15-15-36.147 0-66.454 27.088-70.496 63.009-.021.181-.038.363-.051.545l-8.521 112.534c-3.392 44.796-26.775 84.78-64.154 109.699l-23.85 15.9c-48.796 32.531-77.928 86.964-77.928 145.609v32.704h-37c-41.355 0-75-33.645-75-75v-50c0-19.299 15.701-35 35-35s35 15.701 35 35v10c0 8.284 6.716 15 15 15s15-6.716 15-15v-10c0-35.841-29.159-65-65-65s-65 29.159-65 65v50c0 57.897 47.103 105 105 105h392c8.284 0 15-6.716 15-15v-20c0-30.327-24.673-55-55-55h-5v-30.698l16.898-27.037c21.953-35.125 20.581-79.601-3.494-113.306-8.769-12.277-13.404-26.741-13.404-41.828v-9.473c34.93-7.096 60-37.579 60-73.486zm-161.56 326.07c12.162 1.682 21.56 12.14 21.56 24.758v5h-35.041c6.517-8.662 11.204-18.773 13.481-29.758zm90.552-183.846c16.992 23.789 17.96 55.178 2.466 79.968l-19.178 30.686c-1.49 2.384-2.28 5.139-2.28 7.95v50c0 8.284 6.716 15 15 15h20c13.785 0 25 11.215 25 25v5h-80v-5c0-29.146-22.792-53.057-51.487-54.876-6.921-34.253-37.25-60.124-73.513-60.124-8.284 0-15 6.716-15 15s6.716 15 15 15c24.813 0 45 20.187 45 45s-20.187 45-45 45h-100-5v-32.704c0-48.591 24.138-93.693 64.568-120.647l23.85-15.9c21.983-14.656 40.653-34.457 53.991-57.264s21.442-48.787 23.437-75.132l8.499-112.24c1.823-15.37 11.985-27.903 25.655-33.28v32.167c0 8.284 6.716 15 15 15h36.921l58.079 24.891v19.281c0 22.089-15.814 40.756-37.603 44.388l-9.864 1.644c-7.232 1.206-12.533 7.463-12.533 14.796v22.131c0 21.376 6.567 41.87 18.992 59.265z" fill="#525252"/><circle cx="412" cy="121" r="15" fill="#525252"/></g><g transform="matrix(0.091192327439785 0 0 0.091192327439785 319.65476417541504 218.65476417541504)" id="L1_14"><path d="m66 502c0 5.523 4.477 10 10 10h360c5.523 0 10-4.477 10-10s-4.477-10-10-10h-112.998c15.66-9.897 30.161-23.324 42.964-40h10.034c54.911 0 99.566-44.216 100-99.203.173-22.369-17.635-40.797-40-40.797h-20.676c.434-6.648.676-13.337.676-20 0-5.523-4.477-10-10-10h-105c-5.523 0-10 4.477-10 10s4.477 10 10 9.99h94.826c-.222 6.368-.654 12.715-1.292 18.975-.001.009-.002.018-.003.028-8.422 82.461-59.036 171.007-138.531 171.007-74.85 0-136.168-84.346-139.827-190h94.827c5.523 0 10-4.477 10-10s-4.477-10-10-10h-105c-5.523 0-10 4.477-10 10 0 97.065 43.706 168.853 92.971 200h-112.971c-5.523 0-10 4.477-10 10zm390-149.359c-.337 42.556-34.291 77.385-76.413 79.268 17.152-28.73 28.89-63.345 33.78-99.909h22.633c11.304 0 20.086 9.457 20 20.641z" fill="#9e9e9e"/><path d="m40 140h26v20c0 3.466 1.794 6.685 4.743 8.506 2.948 1.822 6.63 1.988 9.729.438l57.889-28.944h57.639c22.056 0 40-17.944 40-40v-60c0-22.056-17.944-40-40-40h-156c-22.056 0-40 17.944-40 40v60c0 22.056 17.944 40 40 40zm-20-100c0-11.028 8.972-20 20-20h156c11.028 0 20 8.972 20 20v60c0 11.028-8.972 20-20 20h-60c-1.552 0-3.083.361-4.472 1.056l-45.528 22.764v-13.82c0-5.523-4.477-10-10-10h-36c-11.028 0-20-8.972-20-20z" fill="#9e9e9e"/><path d="m316 200h57.639l57.889 28.944c3.107 1.553 6.787 1.381 9.729-.438 2.948-1.822 4.743-5.041 4.743-8.506v-20h26c22.056 0 40-17.944 40-40v-60c0-22.056-17.944-40-40-40h-156c-22.056 0-40 17.944-40 40v60c0 22.056 17.944 40 40 40zm-20-100c0-11.028 8.972-20 20-20h156c11.028 0 20 8.972 20 20v60c0 11.028-8.972 20-20 20h-36c-5.523 0-10 4.477-10 10v13.82l-45.528-22.764c-1.389-.694-2.92-1.056-4.472-1.056h-60c-11.028 0-20-8.972-20-20z" fill="#9e9e9e"/><path d="m76 80h90c5.523 0 10-4.477 10-10s-4.477-10-10-10h-90c-5.523 0-10 4.477-10 10s4.477 10 10 10z" fill="#9e9e9e"/><path d="m346 140h90c5.523 0 10-4.477 10-10s-4.477-10-10-10h-90c-5.523 0-10 4.477-10 10s4.477 10 10 10z" fill="#9e9e9e"/><circle cx="256" cy="292" r="10" fill="#9e9e9e"/></g><path d="M52.66,0.249c-0.216-0.189-0.501-0.275-0.789-0.241l-31,4.011C20.373,4.084,20,4.507,20,5.01v6.017v4.212v25.384  C18.174,38.428,15.273,37,12,37c-5.514,0-10,4.037-10,9s4.486,9,10,9s10-4.037,10-9c0-0.232-0.019-0.46-0.039-0.687  C21.974,45.248,22,45.189,22,45.121V16.118l29-3.753v18.257C49.174,28.428,46.273,27,43,27c-5.514,0-10,4.037-10,9s4.486,9,10,9  c5.464,0,9.913-3.966,9.993-8.867c0-0.013,0.007-0.024,0.007-0.037V11.227V7.016V1C53,0.712,52.876,0.438,52.66,0.249z M12,53  c-4.411,0-8-3.141-8-7s3.589-7,8-7s8,3.141,8,7S16.411,53,12,53z M43,43c-4.411,0-8-3.141-8-7s3.589-7,8-7s8,3.141,8,7  S47.411,43,43,43z M22,14.101v-3.074V5.889l29-3.752v4.879v3.332L22,14.101z" transform="matrix(1.0909091234207153 0 0 1.0909091234207153 101 86)" id="L1_15" fill="#737373"/><g transform="matrix(0.0935187122350845 0.01289913296170132 -0.01289913296170132 0.0935187122350845 240.36138770601391 233.75703162962282)" id="L1_16"><path d="m250 351h12c57.897 0 105-47.103 105-105v-140c0-58.449-47.103-106-105-106h-12c-57.833 0-104.896 47.448-105 105.808v140.192c0 57.897 47.103 105 105 105zm0-321h12c38.348 0 70.047 29.322 74.456 67h-24.456c-8.284 0-15 6.716-15 15s6.716 15 15 15h25v34h-41c-8.284 0-15 6.716-15 15s6.716 15 15 15h41v34h-25c-8.284 0-15 6.716-15 15s6.716 15 15 15h24.441c-4.463 37.125-36.133 66-74.441 66h-12c-38.307 0-69.978-28.875-74.441-66h24.441c8.284 0 15-6.716 15-15s-6.716-15-15-15h-25v-34h41c8.284 0 15-6.716 15-15s-6.716-15-15-15h-41v-34h25c8.284 0 15-6.716 15-15s-6.716-15-15-15h-24.456c4.409-37.678 36.108-67 74.456-67z" fill="#b8b8b8"/><path d="m431 240c0-8.284-6.716-15-15-15s-15 6.716-15 15c0 79.953-65.047 145-145 145s-145-65.047-145-145c0-8.284-6.716-15-15-15s-15 6.716-15 15c0 91.442 70.501 166.716 160 174.35v67.65h-81c-8.284 0-15 6.716-15 15s6.716 15 15 15h192c8.284 0 15-6.716 15-15s-6.716-15-15-15h-81v-67.65c89.499-7.634 160-82.908 160-174.35z" fill="#b8b8b8"/></g><g transform="matrix(0.06927401572465897 0 0 0.06927401572465897 314.2658519744873 22.265851974487305)" id="L1_17"><path d="M477.606,128.055C443.431,68.863,388.251,26.52,322.229,8.83C256.208-8.862,187.25,0.217,128.055,34.394    C68.861,68.57,26.52,123.75,8.83,189.772c-17.69,66.021-8.611,134.981,25.564,194.173    C68.568,443.137,123.75,485.48,189.771,503.17c22.046,5.908,44.417,8.83,66.646,8.83c44.339,0,88.101-11.629,127.529-34.393    c59.192-34.175,101.535-89.355,119.225-155.377C520.862,256.207,511.781,187.249,477.606,128.055z M477.429,315.333    c-15.848,59.146-53.78,108.581-106.81,139.197c-53.028,30.617-114.806,38.749-173.952,22.903    c-59.147-15.848-108.581-53.78-139.198-106.81c-30.616-53.028-38.749-114.807-22.9-173.954    C50.418,137.523,88.35,88.09,141.379,57.472c35.325-20.395,74.524-30.812,114.249-30.812c19.91,0,39.959,2.618,59.702,7.909    c59.146,15.848,108.581,53.78,139.197,106.81C485.144,194.408,493.278,256.186,477.429,315.333z"/><path d="M378.778,231.852l-164.526-94.99c-8.731-5.041-19.155-5.039-27.886-0.001c-8.731,5.04-13.944,14.069-13.944,24.15v189.98    c0,10.081,5.212,19.109,13.944,24.15c4.365,2.521,9.152,3.78,13.941,3.78c4.79,0,9.579-1.262,13.944-3.781l164.528-94.989    c8.73-5.042,13.941-14.07,13.941-24.151C392.72,245.92,387.508,236.892,378.778,231.852z M365.452,257.074l-164.527,94.989    c-0.201,0.117-0.62,0.358-1.236,0c-0.618-0.357-0.618-0.839-0.618-1.071v-189.98c0-0.232,0-0.714,0.618-1.071    c0.242-0.14,0.453-0.188,0.633-0.188c0.28,0,0.482,0.117,0.605,0.188l164.526,94.99c0.201,0.116,0.618,0.357,0.618,1.071    C366.071,256.716,365.652,256.958,365.452,257.074z"/><path d="M413.303,134.44c-31.689-40.938-79.326-68.442-130.698-75.461c-7.283-0.997-14.009,4.106-15.006,11.399    c-0.995,7.291,4.108,14.009,11.399,15.006c44.512,6.081,85.783,29.909,113.232,65.369c2.626,3.392,6.565,5.168,10.546,5.168    c2.849,0,5.72-0.909,8.146-2.789C416.741,148.628,417.807,140.259,413.303,134.44z"/></g><g transform="matrix(0.6060134172439575 0 0 0.6060134172439575 -0.6653680801391602 287.33463191986084)" id="L1_18"><path d="M51.376,45.291C46.716,40.66,44.354,35.179,44.354,29v-8.994c0.043-6.857-4.568-11.405-8.53-13.216   c-1.135-0.519-2.305-0.919-3.494-1.216V5c0-2.757-2.243-5-5-5s-5,2.243-5,5v0.661c-1.071,0.289-2.124,0.666-3.146,1.138   C14.805,8.817,10.369,13.681,10.329,20v9c0,6.388-2.256,11.869-6.705,16.291c-0.265,0.264-0.361,0.653-0.249,1.01   s0.415,0.621,0.784,0.685l9.491,1.639c1.768,0.305,3.396,0.555,4.945,0.761C20.341,52.806,23.768,55,27.512,55   c3.745,0,7.173-2.196,8.917-5.618c1.543-0.205,3.163-0.454,4.921-0.758l9.49-1.639c0.369-0.063,0.671-0.328,0.784-0.685   C51.737,45.944,51.641,45.555,51.376,45.291z M24.329,5c0-1.654,1.346-3,3-3s3,1.346,3,3v0.182c-1.993-0.286-4.015-0.274-6,0.047V5   z M27.512,53c-2.532,0-4.898-1.258-6.417-3.315c2.235,0.23,4.321,0.346,6.406,0.346c2.093,0,4.186-0.116,6.43-0.349   C32.411,51.741,30.044,53,27.512,53z M41.01,46.653c-1.919,0.331-3.678,0.6-5.34,0.812c-0.002,0-0.004,0-0.006,0   c-0.732,0.093-1.444,0.174-2.141,0.244c-0.007,0.001-0.015,0.001-0.022,0.002c-0.637,0.064-1.26,0.115-1.876,0.16   c-0.117,0.009-0.233,0.016-0.35,0.024c-0.534,0.035-1.062,0.063-1.587,0.083c-0.108,0.004-0.216,0.01-0.324,0.013   c-1.244,0.042-2.471,0.042-3.714,0.001c-0.11-0.004-0.222-0.009-0.332-0.014c-0.518-0.02-1.04-0.047-1.567-0.082   c-0.124-0.008-0.248-0.016-0.373-0.025c-0.6-0.043-1.207-0.094-1.828-0.155c-0.022-0.002-0.043-0.004-0.064-0.006   c-0.692-0.069-1.399-0.15-2.126-0.242c-0.003,0-0.006,0-0.009,0c-1.668-0.211-3.433-0.482-5.361-0.814L6.329,45.33   c3.983-4.554,6-10.038,6-16.33v-8.994c0.034-5.435,3.888-9.637,7.691-11.391c1.131-0.521,2.304-0.91,3.497-1.183   c0.01-0.002,0.021-0.001,0.031-0.003c2.464-0.554,5.087-0.579,7.58-0.068c0.013,0.003,0.026-0.003,0.039-0.001   c1.304,0.272,2.588,0.684,3.825,1.249c3.689,1.687,7.396,5.861,7.361,11.392v9c0,6.033,2.175,11.643,6.313,16.331L41.01,46.653z"/><path d="M33.746,11.338c-3.875-1.771-8.62-1.773-12.469,0.002c-2.195,1.012-5.918,3.973-5.948,8.654   c-0.003,0.552,0.441,1.002,0.994,1.006c0.002,0,0.004,0,0.006,0c0.549,0,0.997-0.443,1-0.994c0.023-3.677,3.019-6.035,4.785-6.85   c3.331-1.537,7.446-1.533,10.799,0c0.502,0.23,1.096,0.009,1.326-0.493C34.469,12.16,34.248,11.567,33.746,11.338z"/></g><g transform="matrix(-0.08912129033676691 -0.009902365742906564 -0.009902365742906564 0.08912129033676691 281.35261065416324 -16.287433151623855)"><path d="m512 125.172v-29.172c0-6-3.576-11.423-9.091-13.787l-70-30c-1.867-.8-3.878-1.213-5.909-1.213h-25v-35c0-8.284-6.716-15-15-15-36.147 0-66.454 27.088-70.496 63.009-.021.181-.038.363-.051.545l-8.521 112.534c-3.392 44.796-26.775 84.78-64.154 109.699l-23.85 15.9c-48.796 32.531-77.928 86.964-77.928 145.609v32.704h-37c-41.355 0-75-33.645-75-75v-50c0-19.299 15.701-35 35-35s35 15.701 35 35v10c0 8.284 6.716 15 15 15s15-6.716 15-15v-10c0-35.841-29.159-65-65-65s-65 29.159-65 65v50c0 57.897 47.103 105 105 105h392c8.284 0 15-6.716 15-15v-20c0-30.327-24.673-55-55-55h-5v-30.698l16.898-27.037c21.953-35.125 20.581-79.601-3.494-113.306-8.769-12.277-13.404-26.741-13.404-41.828v-9.473c34.93-7.096 60-37.579 60-73.486zm-161.56 326.07c12.162 1.682 21.56 12.14 21.56 24.758v5h-35.041c6.517-8.662 11.204-18.773 13.481-29.758zm90.552-183.846c16.992 23.789 17.96 55.178 2.466 79.968l-19.178 30.686c-1.49 2.384-2.28 5.139-2.28 7.95v50c0 8.284 6.716 15 15 15h20c13.785 0 25 11.215 25 25v5h-80v-5c0-29.146-22.792-53.057-51.487-54.876-6.921-34.253-37.25-60.124-73.513-60.124-8.284 0-15 6.716-15 15s6.716 15 15 15c24.813 0 45 20.187 45 45s-20.187 45-45 45h-100-5v-32.704c0-48.591 24.138-93.693 64.568-120.647l23.85-15.9c21.983-14.656 40.653-34.457 53.991-57.264s21.442-48.787 23.437-75.132l8.499-112.24c1.823-15.37 11.985-27.903 25.655-33.28v32.167c0 8.284 6.716 15 15 15h36.921l58.079 24.891v19.281c0 22.089-15.814 40.756-37.603 44.388l-9.864 1.644c-7.232 1.206-12.533 7.463-12.533 14.796v22.131c0 21.376 6.567 41.87 18.992 59.265z" fill="#8a8a8a"/><circle cx="412" cy="121" r="15" fill="#8a8a8a"/></g><path d="m512 55.964844c-32.207031 1.484375-31.503906 1.363281-35.144531 1.667968l19.074219-54.472656s-59.539063 21.902344-74.632813 25.820313c-39.640625-35.628907-98.5625-37.203125-140.6875-11.3125-34.496094 21.207031-53.011719 57.625-46.835937 100.191406-67.136719-9.316406-123.703126-41.140625-168.363282-94.789063l-14.125-16.964843-10.554687 19.382812c-13.339844 24.492188-17.769531 52.496094-12.476563 78.851563 2.171875 10.8125 5.863282 21.125 10.976563 30.78125l-12.117188-4.695313-1.4375 20.246094c-1.457031 20.566406 5.390625 44.574219 18.320313 64.214844 3.640625 5.53125 8.328125 11.605469 14.269531 17.597656l-6.261719-.960937 7.640625 23.199218c10.042969 30.480469 30.902344 54.0625 57.972657 67.171875-27.035157 11.472657-48.875 18.792969-84.773438 30.601563l-32.84375 10.796875 30.335938 16.585937c11.566406 6.324219 52.4375 27.445313 92.820312 33.78125 89.765625 14.078125 190.832031 2.613282 258.871094-58.664062 57.308594-51.613282 76.113281-125.03125 72.207031-201.433594-.589844-11.566406 2.578125-22.605469 8.921875-31.078125 12.707031-16.964844 48.765625-66.40625 48.84375-66.519531zm-72.832031 48.550781c-10.535157 14.066406-15.8125 32.03125-14.867188 50.578125 3.941407 77.066406-17.027343 136.832031-62.328125 177.628906-52.917968 47.660156-138.273437 66.367188-234.171875 51.324219-17.367187-2.722656-35.316406-8.820313-50.171875-14.910156 30.097656-10.355469 53.339844-19.585938 90.875-37.351563l52.398438-24.800781-57.851563-3.703125c-27.710937-1.773438-50.785156-15.203125-64.96875-37.007812 7.53125-.4375 14.792969-1.65625 22.023438-3.671876l55.175781-15.367187-55.636719-13.625c-27.035156-6.621094-42.445312-22.796875-50.613281-35.203125-5.363281-8.152344-8.867188-16.503906-10.96875-24.203125 5.578125 1.496094 12.082031 2.5625 22.570312 3.601563l51.496094 5.09375-40.800781-31.828126c-29.398437-22.929687-41.179687-57.378906-32.542969-90.496093 91.75 95.164062 199.476563 88.011719 210.320313 90.527343-2.386719-23.183593-2.449219-23.238281-3.074219-25.445312-13.886719-49.089844 16.546875-74.015625 30.273438-82.453125 28.671874-17.621094 74.183593-20.277344 105.707031 8.753906 6.808593 6.265625 16.015625 8.730469 24.632812 6.589844 7.734375-1.921875 14.082031-3.957031 20.296875-6.171875l-12.9375 36.945312 16.515625.011719c-3.117187 4.179688-6.855469 9.183594-11.351562 15.183594zm0 0" transform="matrix(0.08052186667919159 0 0 0.08052186667919159 222.38640022277832 152.6909014764824)"/><g transform="matrix(0.07457767127216625 0.00828640804459471 -0.00828640804459471 0.07457767127216625 209.0294366137417 94.78679569490919)" id="L1_22"><path d="m449.391 0h-386.782c-34.523 0-62.609 28.11-62.609 62.662v297.036c0 34.552 28.086 62.662 62.609 62.662h139.891l-13.301 59.614h-36.772c-8.284 0-15 6.722-15 15.013s6.716 15.013 15 15.013h207.146c8.284 0 15-6.722 15-15.013s-6.716-15.013-15-15.013h-36.772l-13.301-59.613h139.89c34.523 0 62.609-28.11 62.609-62.662v-297.037c.001-34.552-28.085-62.662-62.608-62.662zm32.609 324.668h-452v-37.742h96.429c3.979 0 7.794-1.582 10.606-4.397l58.132-58.181 36.319 36.35c5.857 5.863 15.355 5.863 21.213 0l71.834-71.894 52.158 52.202c2.813 2.815 6.628 4.397 10.606 4.397h94.703zm-419.391-294.642h386.781c17.98 0 32.609 14.641 32.609 32.637v152.715h-88.489l-58.371-58.42c-5.857-5.863-15.355-5.863-21.213 0l-71.834 71.894-36.319-36.35c-5.857-5.864-15.355-5.862-21.213 0l-64.345 64.399h-90.215v-194.239c0-17.995 14.629-32.636 32.609-32.636zm229.454 451.948h-72.125l13.301-59.614h45.523zm157.328-89.639h-386.782c-17.98 0-32.609-14.641-32.609-32.637v-5.004h452v5.004c0 17.996-14.629 32.637-32.609 32.637z" fill="#757575"/><path d="m256 153.322c25.396 0 46.058-20.679 46.058-46.096s-20.662-46.097-46.058-46.097-46.058 20.679-46.058 46.096 20.662 46.097 46.058 46.097zm0-62.167c8.854 0 16.058 7.209 16.058 16.071s-7.203 16.071-16.058 16.071-16.058-7.209-16.058-16.071 7.204-16.071 16.058-16.071z" fill="#757575"/></g><g transform="matrix(-0.3039422631263733 0 0 0.3039422631263733 29.86319390106752 140.1880313307047)" id="L1_23"><path d="m21.346 90.688a1.75 1.75 0 0 0 -1.75 1.75v19.062a1.75 1.75 0 0 0 3.5 0v-19.062a1.75 1.75 0 0 0 -1.75-1.75z" fill="#707070"/><path d="m108.062 69.816a21.664 21.664 0 0 0 -22.828-4.971 21.414 21.414 0 0 0 -5-1.942 34.5 34.5 0 1 0 -50.145.017 21.839 21.839 0 0 0 -16.489 21.08v37.5a1.75 1.75 0 0 0 1.75 1.75h79.61a1.75 1.75 0 0 0 1.75-1.75v-15.1a21.634 21.634 0 0 0 11.352-36.585zm-52.908-61.566a31 31 0 1 1 -31 31 31.035 31.035 0 0 1 31-31zm38.056 111.5h-76.11v-35.75a18.3 18.3 0 0 1 16.165-18.1 34.431 34.431 0 0 0 43.794-.013 17.7 17.7 0 0 1 4.118.958 21.637 21.637 0 0 0 11.572 39.93c.154 0 .306-.019.46-.022zm-13.3-21.786a18.154 18.154 0 1 1 25.674 0 18.174 18.174 0 0 1 -25.671 0z" fill="#707070"/><path d="m103.18 78.94-4.243-4.24a1.8 1.8 0 0 0 -2.475 0l-3.712 3.71-3.712-3.71a1.749 1.749 0 0 0 -2.475 0l-4.243 4.24a1.749 1.749 0 0 0 0 2.475l3.712 3.712-3.712 3.713a1.749 1.749 0 0 0 0 2.475l4.243 4.242a1.749 1.749 0 0 0 2.475 0l3.712-3.712 3.712 3.712a1.749 1.749 0 0 0 2.475 0l4.243-4.242a1.749 1.749 0 0 0 0-2.475l-3.712-3.713 3.712-3.712a1.749 1.749 0 0 0 0-2.475zm-7.424 4.95a1.749 1.749 0 0 0 0 2.475l3.712 3.713-1.768 1.767-3.712-3.712a1.749 1.749 0 0 0 -2.475 0l-3.713 3.712-1.768-1.768 3.712-3.713a1.749 1.749 0 0 0 0-2.475l-3.712-3.712 1.768-1.767 3.712 3.712a1.8 1.8 0 0 0 2.475 0l3.713-3.712 1.768 1.768z" fill="#707070"/></g><path d="m462.692,381.085c-1.472-11.126-7.895-20.719-17.62-26.318l-114.226-65.767c-13.99-8.055-31.738-5.71-43.157,5.708l-22.499,22.499c-5.987,5.988-15.459,6.518-22.028,1.231-17.737-14.272-35.201-29.979-51.906-46.685-16.705-16.705-32.412-34.168-46.685-51.906-5.287-6.57-4.758-16.041 1.231-22.029l22.498-22.499c11.418-11.417 13.766-29.163 5.709-43.156l-65.767-114.226c-5.6-9.726-15.192-16.148-26.318-17.62-11.127-1.475-22.06,2.236-29.996,10.172l-33.901,33.902c-23.661,23.662-24.041,66.944-1.07,121.875 22.088,52.818 63.308,110.962 116.065,163.721 52.759,52.758 110.903,93.978 163.722,116.066 27.039,11.307 51.253,16.957 71.697,16.956 21.088,0 38.163-6.013 50.178-18.027l33.901-33.902c7.935-7.936 11.643-18.869 10.172-29.995zm-139.33-79.086l114.226,65.767c5.649,3.252 9.379,8.824 10.233,15.286 0.718,5.423-0.691,10.763-3.885,15.066l-151.805-86.638 6.165-6.165c6.631-6.631 16.941-7.994 25.066-3.316zm-243.406-286.811c6.463,0.855 12.034,4.585 15.286,10.234l65.767,114.226c4.68,8.127 3.316,18.435-3.315,25.065l-5.663,5.663-87.114-151.303c3.561-2.637 7.82-4.069 12.26-4.069 0.921-1.77636e-15 1.85,0.061 2.779,0.184zm328.055,419.187c-18.798,18.798-57.244,18.01-105.48-2.162-51.06-21.352-107.491-61.424-158.901-112.833-51.41-51.41-91.482-107.842-112.834-158.901-20.173-48.237-20.96-86.683-2.162-105.482l25.167-25.168 87.245,151.532-5.851,5.851c-11.415,11.416-12.409,29.488-2.311,42.04 14.609,18.156 30.68,36.024 47.764,53.108 17.086,17.085 34.954,33.156 53.109,47.765 12.55,10.098 30.622,9.105 42.04-2.312l5.338-5.338 152.016,86.759-25.14,25.141z" transform="matrix(0.08574268966913223 0 0 0.08574268966913223 269.1499841995537 90.14998419955373)" id="L1_24" fill="#8c8c8c"/><path d="m462.692,381.085c-1.472-11.126-7.895-20.719-17.62-26.318l-114.226-65.767c-13.99-8.055-31.738-5.71-43.157,5.708l-22.499,22.499c-5.987,5.988-15.459,6.518-22.028,1.231-17.737-14.272-35.201-29.979-51.906-46.685-16.705-16.705-32.412-34.168-46.685-51.906-5.287-6.57-4.758-16.041 1.231-22.029l22.498-22.499c11.418-11.417 13.766-29.163 5.709-43.156l-65.767-114.226c-5.6-9.726-15.192-16.148-26.318-17.62-11.127-1.475-22.06,2.236-29.996,10.172l-33.901,33.902c-23.661,23.662-24.041,66.944-1.07,121.875 22.088,52.818 63.308,110.962 116.065,163.721 52.759,52.758 110.903,93.978 163.722,116.066 27.039,11.307 51.253,16.957 71.697,16.956 21.088,0 38.163-6.013 50.178-18.027l33.901-33.902c7.935-7.936 11.643-18.869 10.172-29.995zm-139.33-79.086l114.226,65.767c5.649,3.252 9.379,8.824 10.233,15.286 0.718,5.423-0.691,10.763-3.885,15.066l-151.805-86.638 6.165-6.165c6.631-6.631 16.941-7.994 25.066-3.316zm-243.406-286.811c6.463,0.855 12.034,4.585 15.286,10.234l65.767,114.226c4.68,8.127 3.316,18.435-3.315,25.065l-5.663,5.663-87.114-151.303c3.561-2.637 7.82-4.069 12.26-4.069 0.921-1.77636e-15 1.85,0.061 2.779,0.184zm328.055,419.187c-18.798,18.798-57.244,18.01-105.48-2.162-51.06-21.352-107.491-61.424-158.901-112.833-51.41-51.41-91.482-107.842-112.834-158.901-20.173-48.237-20.96-86.683-2.162-105.482l25.167-25.168 87.245,151.532-5.851,5.851c-11.415,11.416-12.409,29.488-2.311,42.04 14.609,18.156 30.68,36.024 47.764,53.108 17.086,17.085 34.954,33.156 53.109,47.765 12.55,10.098 30.622,9.105 42.04-2.312l5.338-5.338 152.016,86.759-25.14,25.141z" transform="matrix(0.08574268966913223 0 0 0.08574268966913223 279.1499841995537 297.1499841995537)" fill="#8c8c8c"/><g transform="matrix(0.6060134172439575 0 0 0.6060134172439575 128.33463191986084 292.33463191986084)"><path d="M51.376,45.291C46.716,40.66,44.354,35.179,44.354,29v-8.994c0.043-6.857-4.568-11.405-8.53-13.216   c-1.135-0.519-2.305-0.919-3.494-1.216V5c0-2.757-2.243-5-5-5s-5,2.243-5,5v0.661c-1.071,0.289-2.124,0.666-3.146,1.138   C14.805,8.817,10.369,13.681,10.329,20v9c0,6.388-2.256,11.869-6.705,16.291c-0.265,0.264-0.361,0.653-0.249,1.01   s0.415,0.621,0.784,0.685l9.491,1.639c1.768,0.305,3.396,0.555,4.945,0.761C20.341,52.806,23.768,55,27.512,55   c3.745,0,7.173-2.196,8.917-5.618c1.543-0.205,3.163-0.454,4.921-0.758l9.49-1.639c0.369-0.063,0.671-0.328,0.784-0.685   C51.737,45.944,51.641,45.555,51.376,45.291z M24.329,5c0-1.654,1.346-3,3-3s3,1.346,3,3v0.182c-1.993-0.286-4.015-0.274-6,0.047V5   z M27.512,53c-2.532,0-4.898-1.258-6.417-3.315c2.235,0.23,4.321,0.346,6.406,0.346c2.093,0,4.186-0.116,6.43-0.349   C32.411,51.741,30.044,53,27.512,53z M41.01,46.653c-1.919,0.331-3.678,0.6-5.34,0.812c-0.002,0-0.004,0-0.006,0   c-0.732,0.093-1.444,0.174-2.141,0.244c-0.007,0.001-0.015,0.001-0.022,0.002c-0.637,0.064-1.26,0.115-1.876,0.16   c-0.117,0.009-0.233,0.016-0.35,0.024c-0.534,0.035-1.062,0.063-1.587,0.083c-0.108,0.004-0.216,0.01-0.324,0.013   c-1.244,0.042-2.471,0.042-3.714,0.001c-0.11-0.004-0.222-0.009-0.332-0.014c-0.518-0.02-1.04-0.047-1.567-0.082   c-0.124-0.008-0.248-0.016-0.373-0.025c-0.6-0.043-1.207-0.094-1.828-0.155c-0.022-0.002-0.043-0.004-0.064-0.006   c-0.692-0.069-1.399-0.15-2.126-0.242c-0.003,0-0.006,0-0.009,0c-1.668-0.211-3.433-0.482-5.361-0.814L6.329,45.33   c3.983-4.554,6-10.038,6-16.33v-8.994c0.034-5.435,3.888-9.637,7.691-11.391c1.131-0.521,2.304-0.91,3.497-1.183   c0.01-0.002,0.021-0.001,0.031-0.003c2.464-0.554,5.087-0.579,7.58-0.068c0.013,0.003,0.026-0.003,0.039-0.001   c1.304,0.272,2.588,0.684,3.825,1.249c3.689,1.687,7.396,5.861,7.361,11.392v9c0,6.033,2.175,11.643,6.313,16.331L41.01,46.653z" fill="#969696"/><path d="M33.746,11.338c-3.875-1.771-8.62-1.773-12.469,0.002c-2.195,1.012-5.918,3.973-5.948,8.654   c-0.003,0.552,0.441,1.002,0.994,1.006c0.002,0,0.004,0,0.006,0c0.549,0,0.997-0.443,1-0.994c0.023-3.677,3.019-6.035,4.785-6.85   c3.331-1.537,7.446-1.533,10.799,0c0.502,0.23,1.096,0.009,1.326-0.493C34.469,12.16,34.248,11.567,33.746,11.338z" fill="#969696"/></g><g transform="matrix(0.06905339582714304 -0.02209708565873648 0.02209708565873648 0.06905339582714304 63.66547673961486 30.979184596887933)"><path d="m75 512h362c41.355469 0 75-33.644531 75-75v-362c0-41.355469-33.644531-75-75-75h-362c-41.355469 0-75 33.644531-75 75v362c0 41.355469 33.644531 75 75 75zm-45-437c0-24.8125 20.1875-45 45-45h362c24.8125 0 45 20.1875 45 45v362c0 24.8125-20.1875 45-45 45h-362c-24.8125 0-45-20.1875-45-45zm0 0" fill="#a6a6a6"/><path d="m256 391c74.4375 0 135-60.5625 135-135s-60.5625-135-135-135-135 60.5625-135 135 60.5625 135 135 135zm0-240c57.898438 0 105 47.101562 105 105s-47.101562 105-105 105-105-47.101562-105-105 47.101562-105 105-105zm0 0" fill="#a6a6a6"/><path d="m406 151c24.8125 0 45-20.1875 45-45s-20.1875-45-45-45-45 20.1875-45 45 20.1875 45 45 45zm0-60c8.269531 0 15 6.730469 15 15s-6.730469 15-15 15-15-6.730469-15-15 6.730469-15 15-15zm0 0" fill="#a6a6a6"/></g><g transform="matrix(0.06927401572465897 0 0 0.06927401572465897 324.2658519744873 65.2658519744873)"><path d="M477.606,128.055C443.431,68.863,388.251,26.52,322.229,8.83C256.208-8.862,187.25,0.217,128.055,34.394    C68.861,68.57,26.52,123.75,8.83,189.772c-17.69,66.021-8.611,134.981,25.564,194.173    C68.568,443.137,123.75,485.48,189.771,503.17c22.046,5.908,44.417,8.83,66.646,8.83c44.339,0,88.101-11.629,127.529-34.393    c59.192-34.175,101.535-89.355,119.225-155.377C520.862,256.207,511.781,187.249,477.606,128.055z M477.429,315.333    c-15.848,59.146-53.78,108.581-106.81,139.197c-53.028,30.617-114.806,38.749-173.952,22.903    c-59.147-15.848-108.581-53.78-139.198-106.81c-30.616-53.028-38.749-114.807-22.9-173.954    C50.418,137.523,88.35,88.09,141.379,57.472c35.325-20.395,74.524-30.812,114.249-30.812c19.91,0,39.959,2.618,59.702,7.909    c59.146,15.848,108.581,53.78,139.197,106.81C485.144,194.408,493.278,256.186,477.429,315.333z"/><path d="M378.778,231.852l-164.526-94.99c-8.731-5.041-19.155-5.039-27.886-0.001c-8.731,5.04-13.944,14.069-13.944,24.15v189.98    c0,10.081,5.212,19.109,13.944,24.15c4.365,2.521,9.152,3.78,13.941,3.78c4.79,0,9.579-1.262,13.944-3.781l164.528-94.989    c8.73-5.042,13.941-14.07,13.941-24.151C392.72,245.92,387.508,236.892,378.778,231.852z M365.452,257.074l-164.527,94.989    c-0.201,0.117-0.62,0.358-1.236,0c-0.618-0.357-0.618-0.839-0.618-1.071v-189.98c0-0.232,0-0.714,0.618-1.071    c0.242-0.14,0.453-0.188,0.633-0.188c0.28,0,0.482,0.117,0.605,0.188l164.526,94.99c0.201,0.116,0.618,0.357,0.618,1.071    C366.071,256.716,365.652,256.958,365.452,257.074z"/><path d="M413.303,134.44c-31.689-40.938-79.326-68.442-130.698-75.461c-7.283-0.997-14.009,4.106-15.006,11.399    c-0.995,7.291,4.108,14.009,11.399,15.006c44.512,6.081,85.783,29.909,113.232,65.369c2.626,3.392,6.565,5.168,10.546,5.168    c2.849,0,5.72-0.909,8.146-2.789C416.741,148.628,417.807,140.259,413.303,134.44z"/></g><path d="M257.938,336.072c0,17.355-14.068,31.424-31.423,31.424c-17.354,0-31.422-14.068-31.422-31.424   c0-17.354,14.068-31.423,31.422-31.423C243.87,304.65,257.938,318.719,257.938,336.072z M385.485,304.65   c-17.354,0-31.423,14.068-31.423,31.424c0,17.354,14.069,31.422,31.423,31.422c17.354,0,31.424-14.068,31.424-31.422   C416.908,318.719,402.84,304.65,385.485,304.65z M612,318.557v59.719c0,29.982-24.305,54.287-54.288,54.287h-39.394   C479.283,540.947,379.604,606.412,306,606.412s-173.283-65.465-212.318-173.85H54.288C24.305,432.562,0,408.258,0,378.275v-59.719   c0-20.631,11.511-38.573,28.46-47.758c0.569-84.785,25.28-151.002,73.553-196.779C149.895,28.613,218.526,5.588,306,5.588   c87.474,0,156.105,23.025,203.987,68.43c48.272,45.777,72.982,111.995,73.553,196.779C600.489,279.983,612,297.925,612,318.557z    M497.099,336.271c0-13.969-0.715-27.094-1.771-39.812c-24.093-22.043-67.832-38.769-123.033-44.984   c7.248,8.15,13.509,18.871,17.306,32.983c-33.812-26.637-100.181-20.297-150.382-79.905c-2.878-3.329-5.367-6.51-7.519-9.417   c-0.025-0.035-0.053-0.062-0.078-0.096l0.006,0.002c-8.931-12.078-11.976-19.262-12.146-11.31   c-1.473,68.513-50.034,121.925-103.958,129.46c-0.341,7.535-0.62,15.143-0.62,23.08c0,28.959,4.729,55.352,12.769,79.137   c30.29,36.537,80.312,46.854,124.586,49.59c8.219-13.076,26.66-22.205,48.136-22.205c29.117,0,52.72,16.754,52.72,37.424   c0,20.668-23.604,37.422-52.72,37.422c-22.397,0-41.483-9.93-49.122-23.912c-30.943-1.799-64.959-7.074-95.276-21.391   C198.631,535.18,264.725,568.41,306,568.41C370.859,568.41,497.099,486.475,497.099,336.271z M550.855,264.269   C547.4,116.318,462.951,38.162,306,38.162S64.601,116.318,61.145,264.269h20.887c7.637-49.867,23.778-90.878,48.285-122.412   C169.37,91.609,228.478,66.13,306,66.13c77.522,0,136.63,25.479,175.685,75.727c24.505,31.533,40.647,72.545,48.284,122.412   H550.855L550.855,264.269z" transform="matrix(0.04897202744802372 -0.013992007443596632 0.013992007443596632 0.04897202744802372 72.73300581490255 226.29611437038363)" id="L1_25" fill="#c7c7c7"/><g transform="matrix(-0.3039422631263733 0 0 0.3039422631263733 39.86319394744544 216.1880313307047)"><path d="m21.346 90.688a1.75 1.75 0 0 0 -1.75 1.75v19.062a1.75 1.75 0 0 0 3.5 0v-19.062a1.75 1.75 0 0 0 -1.75-1.75z" fill="#707070"/><path d="m108.062 69.816a21.664 21.664 0 0 0 -22.828-4.971 21.414 21.414 0 0 0 -5-1.942 34.5 34.5 0 1 0 -50.145.017 21.839 21.839 0 0 0 -16.489 21.08v37.5a1.75 1.75 0 0 0 1.75 1.75h79.61a1.75 1.75 0 0 0 1.75-1.75v-15.1a21.634 21.634 0 0 0 11.352-36.585zm-52.908-61.566a31 31 0 1 1 -31 31 31.035 31.035 0 0 1 31-31zm38.056 111.5h-76.11v-35.75a18.3 18.3 0 0 1 16.165-18.1 34.431 34.431 0 0 0 43.794-.013 17.7 17.7 0 0 1 4.118.958 21.637 21.637 0 0 0 11.572 39.93c.154 0 .306-.019.46-.022zm-13.3-21.786a18.154 18.154 0 1 1 25.674 0 18.174 18.174 0 0 1 -25.671 0z" fill="#707070"/><path d="m103.18 78.94-4.243-4.24a1.8 1.8 0 0 0 -2.475 0l-3.712 3.71-3.712-3.71a1.749 1.749 0 0 0 -2.475 0l-4.243 4.24a1.749 1.749 0 0 0 0 2.475l3.712 3.712-3.712 3.713a1.749 1.749 0 0 0 0 2.475l4.243 4.242a1.749 1.749 0 0 0 2.475 0l3.712-3.712 3.712 3.712a1.749 1.749 0 0 0 2.475 0l4.243-4.242a1.749 1.749 0 0 0 0-2.475l-3.712-3.713 3.712-3.712a1.749 1.749 0 0 0 0-2.475zm-7.424 4.95a1.749 1.749 0 0 0 0 2.475l3.712 3.713-1.768 1.767-3.712-3.712a1.749 1.749 0 0 0 -2.475 0l-3.713 3.712-1.768-1.768 3.712-3.713a1.749 1.749 0 0 0 0-2.475l-3.712-3.712 1.768-1.767 3.712 3.712a1.8 1.8 0 0 0 2.475 0l3.713-3.712 1.768 1.768z" fill="#707070"/></g><g transform="matrix(-0.3039422631263733 0 0 0.3039422631263733 49.86319394744544 226.1880313307047)"><path d="m21.346 90.688a1.75 1.75 0 0 0 -1.75 1.75v19.062a1.75 1.75 0 0 0 3.5 0v-19.062a1.75 1.75 0 0 0 -1.75-1.75z" fill="#707070"/><path d="m108.062 69.816a21.664 21.664 0 0 0 -22.828-4.971 21.414 21.414 0 0 0 -5-1.942 34.5 34.5 0 1 0 -50.145.017 21.839 21.839 0 0 0 -16.489 21.08v37.5a1.75 1.75 0 0 0 1.75 1.75h79.61a1.75 1.75 0 0 0 1.75-1.75v-15.1a21.634 21.634 0 0 0 11.352-36.585zm-52.908-61.566a31 31 0 1 1 -31 31 31.035 31.035 0 0 1 31-31zm38.056 111.5h-76.11v-35.75a18.3 18.3 0 0 1 16.165-18.1 34.431 34.431 0 0 0 43.794-.013 17.7 17.7 0 0 1 4.118.958 21.637 21.637 0 0 0 11.572 39.93c.154 0 .306-.019.46-.022zm-13.3-21.786a18.154 18.154 0 1 1 25.674 0 18.174 18.174 0 0 1 -25.671 0z" fill="#707070"/><path d="m103.18 78.94-4.243-4.24a1.8 1.8 0 0 0 -2.475 0l-3.712 3.71-3.712-3.71a1.749 1.749 0 0 0 -2.475 0l-4.243 4.24a1.749 1.749 0 0 0 0 2.475l3.712 3.712-3.712 3.713a1.749 1.749 0 0 0 0 2.475l4.243 4.242a1.749 1.749 0 0 0 2.475 0l3.712-3.712 3.712 3.712a1.749 1.749 0 0 0 2.475 0l4.243-4.242a1.749 1.749 0 0 0 0-2.475l-3.712-3.713 3.712-3.712a1.749 1.749 0 0 0 0-2.475zm-7.424 4.95a1.749 1.749 0 0 0 0 2.475l3.712 3.713-1.768 1.767-3.712-3.712a1.749 1.749 0 0 0 -2.475 0l-3.713 3.712-1.768-1.768 3.712-3.713a1.749 1.749 0 0 0 0-2.475l-3.712-3.712 1.768-1.767 3.712 3.712a1.8 1.8 0 0 0 2.475 0l3.713-3.712 1.768 1.768z" fill="#707070"/></g><g transform="matrix(-0.3039422631263733 0 0 0.3039422631263733 40.86319399382336 111.18803133070469)"><path d="m21.346 90.688a1.75 1.75 0 0 0 -1.75 1.75v19.062a1.75 1.75 0 0 0 3.5 0v-19.062a1.75 1.75 0 0 0 -1.75-1.75z" fill="#707070"/><path d="m108.062 69.816a21.664 21.664 0 0 0 -22.828-4.971 21.414 21.414 0 0 0 -5-1.942 34.5 34.5 0 1 0 -50.145.017 21.839 21.839 0 0 0 -16.489 21.08v37.5a1.75 1.75 0 0 0 1.75 1.75h79.61a1.75 1.75 0 0 0 1.75-1.75v-15.1a21.634 21.634 0 0 0 11.352-36.585zm-52.908-61.566a31 31 0 1 1 -31 31 31.035 31.035 0 0 1 31-31zm38.056 111.5h-76.11v-35.75a18.3 18.3 0 0 1 16.165-18.1 34.431 34.431 0 0 0 43.794-.013 17.7 17.7 0 0 1 4.118.958 21.637 21.637 0 0 0 11.572 39.93c.154 0 .306-.019.46-.022zm-13.3-21.786a18.154 18.154 0 1 1 25.674 0 18.174 18.174 0 0 1 -25.671 0z" fill="#707070"/><path d="m103.18 78.94-4.243-4.24a1.8 1.8 0 0 0 -2.475 0l-3.712 3.71-3.712-3.71a1.749 1.749 0 0 0 -2.475 0l-4.243 4.24a1.749 1.749 0 0 0 0 2.475l3.712 3.712-3.712 3.713a1.749 1.749 0 0 0 0 2.475l4.243 4.242a1.749 1.749 0 0 0 2.475 0l3.712-3.712 3.712 3.712a1.749 1.749 0 0 0 2.475 0l4.243-4.242a1.749 1.749 0 0 0 0-2.475l-3.712-3.713 3.712-3.712a1.749 1.749 0 0 0 0-2.475zm-7.424 4.95a1.749 1.749 0 0 0 0 2.475l3.712 3.713-1.768 1.767-3.712-3.712a1.749 1.749 0 0 0 -2.475 0l-3.713 3.712-1.768-1.768 3.712-3.713a1.749 1.749 0 0 0 0-2.475l-3.712-3.712 1.768-1.767 3.712 3.712a1.8 1.8 0 0 0 2.475 0l3.713-3.712 1.768 1.768z" fill="#707070"/></g><g transform="matrix(-0.07394358230309818 0.009541107344299865 0.009541107344299865 0.07394358230309818 201.4944975463037 201.6158982100934)"><path d="m512 125.172v-29.172c0-6-3.576-11.423-9.091-13.787l-70-30c-1.867-.8-3.878-1.213-5.909-1.213h-25v-35c0-8.284-6.716-15-15-15-36.147 0-66.454 27.088-70.496 63.009-.021.181-.038.363-.051.545l-8.521 112.534c-3.392 44.796-26.775 84.78-64.154 109.699l-23.85 15.9c-48.796 32.531-77.928 86.964-77.928 145.609v32.704h-37c-41.355 0-75-33.645-75-75v-50c0-19.299 15.701-35 35-35s35 15.701 35 35v10c0 8.284 6.716 15 15 15s15-6.716 15-15v-10c0-35.841-29.159-65-65-65s-65 29.159-65 65v50c0 57.897 47.103 105 105 105h392c8.284 0 15-6.716 15-15v-20c0-30.327-24.673-55-55-55h-5v-30.698l16.898-27.037c21.953-35.125 20.581-79.601-3.494-113.306-8.769-12.277-13.404-26.741-13.404-41.828v-9.473c34.93-7.096 60-37.579 60-73.486zm-161.56 326.07c12.162 1.682 21.56 12.14 21.56 24.758v5h-35.041c6.517-8.662 11.204-18.773 13.481-29.758zm90.552-183.846c16.992 23.789 17.96 55.178 2.466 79.968l-19.178 30.686c-1.49 2.384-2.28 5.139-2.28 7.95v50c0 8.284 6.716 15 15 15h20c13.785 0 25 11.215 25 25v5h-80v-5c0-29.146-22.792-53.057-51.487-54.876-6.921-34.253-37.25-60.124-73.513-60.124-8.284 0-15 6.716-15 15s6.716 15 15 15c24.813 0 45 20.187 45 45s-20.187 45-45 45h-100-5v-32.704c0-48.591 24.138-93.693 64.568-120.647l23.85-15.9c21.983-14.656 40.653-34.457 53.991-57.264s21.442-48.787 23.437-75.132l8.499-112.24c1.823-15.37 11.985-27.903 25.655-33.28v32.167c0 8.284 6.716 15 15 15h36.921l58.079 24.891v19.281c0 22.089-15.814 40.756-37.603 44.388l-9.864 1.644c-7.232 1.206-12.533 7.463-12.533 14.796v22.131c0 21.376 6.567 41.87 18.992 59.265z" fill="#525252"/><circle cx="412" cy="121" r="15" fill="#525252"/></g><path d="m462.692,381.085c-1.472-11.126-7.895-20.719-17.62-26.318l-114.226-65.767c-13.99-8.055-31.738-5.71-43.157,5.708l-22.499,22.499c-5.987,5.988-15.459,6.518-22.028,1.231-17.737-14.272-35.201-29.979-51.906-46.685-16.705-16.705-32.412-34.168-46.685-51.906-5.287-6.57-4.758-16.041 1.231-22.029l22.498-22.499c11.418-11.417 13.766-29.163 5.709-43.156l-65.767-114.226c-5.6-9.726-15.192-16.148-26.318-17.62-11.127-1.475-22.06,2.236-29.996,10.172l-33.901,33.902c-23.661,23.662-24.041,66.944-1.07,121.875 22.088,52.818 63.308,110.962 116.065,163.721 52.759,52.758 110.903,93.978 163.722,116.066 27.039,11.307 51.253,16.957 71.697,16.956 21.088,0 38.163-6.013 50.178-18.027l33.901-33.902c7.935-7.936 11.643-18.869 10.172-29.995zm-139.33-79.086l114.226,65.767c5.649,3.252 9.379,8.824 10.233,15.286 0.718,5.423-0.691,10.763-3.885,15.066l-151.805-86.638 6.165-6.165c6.631-6.631 16.941-7.994 25.066-3.316zm-243.406-286.811c6.463,0.855 12.034,4.585 15.286,10.234l65.767,114.226c4.68,8.127 3.316,18.435-3.315,25.065l-5.663,5.663-87.114-151.303c3.561-2.637 7.82-4.069 12.26-4.069 0.921-1.77636e-15 1.85,0.061 2.779,0.184zm328.055,419.187c-18.798,18.798-57.244,18.01-105.48-2.162-51.06-21.352-107.491-61.424-158.901-112.833-51.41-51.41-91.482-107.842-112.834-158.901-20.173-48.237-20.96-86.683-2.162-105.482l25.167-25.168 87.245,151.532-5.851,5.851c-11.415,11.416-12.409,29.488-2.311,42.04 14.609,18.156 30.68,36.024 47.764,53.108 17.086,17.085 34.954,33.156 53.109,47.765 12.55,10.098 30.622,9.105 42.04-2.312l5.338-5.338 152.016,86.759-25.14,25.141z" transform="matrix(0.08574268966913223 0 0 0.08574268966913223 54.14998419955373 245.14998419955373)" fill="#8c8c8c"/><path d="m462.692,381.085c-1.472-11.126-7.895-20.719-17.62-26.318l-114.226-65.767c-13.99-8.055-31.738-5.71-43.157,5.708l-22.499,22.499c-5.987,5.988-15.459,6.518-22.028,1.231-17.737-14.272-35.201-29.979-51.906-46.685-16.705-16.705-32.412-34.168-46.685-51.906-5.287-6.57-4.758-16.041 1.231-22.029l22.498-22.499c11.418-11.417 13.766-29.163 5.709-43.156l-65.767-114.226c-5.6-9.726-15.192-16.148-26.318-17.62-11.127-1.475-22.06,2.236-29.996,10.172l-33.901,33.902c-23.661,23.662-24.041,66.944-1.07,121.875 22.088,52.818 63.308,110.962 116.065,163.721 52.759,52.758 110.903,93.978 163.722,116.066 27.039,11.307 51.253,16.957 71.697,16.956 21.088,0 38.163-6.013 50.178-18.027l33.901-33.902c7.935-7.936 11.643-18.869 10.172-29.995zm-139.33-79.086l114.226,65.767c5.649,3.252 9.379,8.824 10.233,15.286 0.718,5.423-0.691,10.763-3.885,15.066l-151.805-86.638 6.165-6.165c6.631-6.631 16.941-7.994 25.066-3.316zm-243.406-286.811c6.463,0.855 12.034,4.585 15.286,10.234l65.767,114.226c4.68,8.127 3.316,18.435-3.315,25.065l-5.663,5.663-87.114-151.303c3.561-2.637 7.82-4.069 12.26-4.069 0.921-1.77636e-15 1.85,0.061 2.779,0.184zm328.055,419.187c-18.798,18.798-57.244,18.01-105.48-2.162-51.06-21.352-107.491-61.424-158.901-112.833-51.41-51.41-91.482-107.842-112.834-158.901-20.173-48.237-20.96-86.683-2.162-105.482l25.167-25.168 87.245,151.532-5.851,5.851c-11.415,11.416-12.409,29.488-2.311,42.04 14.609,18.156 30.68,36.024 47.764,53.108 17.086,17.085 34.954,33.156 53.109,47.765 12.55,10.098 30.622,9.105 42.04-2.312l5.338-5.338 152.016,86.759-25.14,25.141z" transform="matrix(0.08574268966913223 0 0 0.08574268966913223 124.14998419955373 1.149984199553728)" fill="#8c8c8c"/><path d="m462.692,381.085c-1.472-11.126-7.895-20.719-17.62-26.318l-114.226-65.767c-13.99-8.055-31.738-5.71-43.157,5.708l-22.499,22.499c-5.987,5.988-15.459,6.518-22.028,1.231-17.737-14.272-35.201-29.979-51.906-46.685-16.705-16.705-32.412-34.168-46.685-51.906-5.287-6.57-4.758-16.041 1.231-22.029l22.498-22.499c11.418-11.417 13.766-29.163 5.709-43.156l-65.767-114.226c-5.6-9.726-15.192-16.148-26.318-17.62-11.127-1.475-22.06,2.236-29.996,10.172l-33.901,33.902c-23.661,23.662-24.041,66.944-1.07,121.875 22.088,52.818 63.308,110.962 116.065,163.721 52.759,52.758 110.903,93.978 163.722,116.066 27.039,11.307 51.253,16.957 71.697,16.956 21.088,0 38.163-6.013 50.178-18.027l33.901-33.902c7.935-7.936 11.643-18.869 10.172-29.995zm-139.33-79.086l114.226,65.767c5.649,3.252 9.379,8.824 10.233,15.286 0.718,5.423-0.691,10.763-3.885,15.066l-151.805-86.638 6.165-6.165c6.631-6.631 16.941-7.994 25.066-3.316zm-243.406-286.811c6.463,0.855 12.034,4.585 15.286,10.234l65.767,114.226c4.68,8.127 3.316,18.435-3.315,25.065l-5.663,5.663-87.114-151.303c3.561-2.637 7.82-4.069 12.26-4.069 0.921-1.77636e-15 1.85,0.061 2.779,0.184zm328.055,419.187c-18.798,18.798-57.244,18.01-105.48-2.162-51.06-21.352-107.491-61.424-158.901-112.833-51.41-51.41-91.482-107.842-112.834-158.901-20.173-48.237-20.96-86.683-2.162-105.482l25.167-25.168 87.245,151.532-5.851,5.851c-11.415,11.416-12.409,29.488-2.311,42.04 14.609,18.156 30.68,36.024 47.764,53.108 17.086,17.085 34.954,33.156 53.109,47.765 12.55,10.098 30.622,9.105 42.04-2.312l5.338-5.338 152.016,86.759-25.14,25.141z" transform="matrix(0.08574268966913223 0 0 0.08574268966913223 303.1499841995537 166.14998419955373)" fill="#8c8c8c"/><path d="m462.692,381.085c-1.472-11.126-7.895-20.719-17.62-26.318l-114.226-65.767c-13.99-8.055-31.738-5.71-43.157,5.708l-22.499,22.499c-5.987,5.988-15.459,6.518-22.028,1.231-17.737-14.272-35.201-29.979-51.906-46.685-16.705-16.705-32.412-34.168-46.685-51.906-5.287-6.57-4.758-16.041 1.231-22.029l22.498-22.499c11.418-11.417 13.766-29.163 5.709-43.156l-65.767-114.226c-5.6-9.726-15.192-16.148-26.318-17.62-11.127-1.475-22.06,2.236-29.996,10.172l-33.901,33.902c-23.661,23.662-24.041,66.944-1.07,121.875 22.088,52.818 63.308,110.962 116.065,163.721 52.759,52.758 110.903,93.978 163.722,116.066 27.039,11.307 51.253,16.957 71.697,16.956 21.088,0 38.163-6.013 50.178-18.027l33.901-33.902c7.935-7.936 11.643-18.869 10.172-29.995zm-139.33-79.086l114.226,65.767c5.649,3.252 9.379,8.824 10.233,15.286 0.718,5.423-0.691,10.763-3.885,15.066l-151.805-86.638 6.165-6.165c6.631-6.631 16.941-7.994 25.066-3.316zm-243.406-286.811c6.463,0.855 12.034,4.585 15.286,10.234l65.767,114.226c4.68,8.127 3.316,18.435-3.315,25.065l-5.663,5.663-87.114-151.303c3.561-2.637 7.82-4.069 12.26-4.069 0.921-1.77636e-15 1.85,0.061 2.779,0.184zm328.055,419.187c-18.798,18.798-57.244,18.01-105.48-2.162-51.06-21.352-107.491-61.424-158.901-112.833-51.41-51.41-91.482-107.842-112.834-158.901-20.173-48.237-20.96-86.683-2.162-105.482l25.167-25.168 87.245,151.532-5.851,5.851c-11.415,11.416-12.409,29.488-2.311,42.04 14.609,18.156 30.68,36.024 47.764,53.108 17.086,17.085 34.954,33.156 53.109,47.765 12.55,10.098 30.622,9.105 42.04-2.312l5.338-5.338 152.016,86.759-25.14,25.141z" transform="matrix(0.08574268966913223 0 0 0.08574268966913223 183.14998419955373 263.1499841995537)" fill="#8c8c8c"/><path d="m462.692,381.085c-1.472-11.126-7.895-20.719-17.62-26.318l-114.226-65.767c-13.99-8.055-31.738-5.71-43.157,5.708l-22.499,22.499c-5.987,5.988-15.459,6.518-22.028,1.231-17.737-14.272-35.201-29.979-51.906-46.685-16.705-16.705-32.412-34.168-46.685-51.906-5.287-6.57-4.758-16.041 1.231-22.029l22.498-22.499c11.418-11.417 13.766-29.163 5.709-43.156l-65.767-114.226c-5.6-9.726-15.192-16.148-26.318-17.62-11.127-1.475-22.06,2.236-29.996,10.172l-33.901,33.902c-23.661,23.662-24.041,66.944-1.07,121.875 22.088,52.818 63.308,110.962 116.065,163.721 52.759,52.758 110.903,93.978 163.722,116.066 27.039,11.307 51.253,16.957 71.697,16.956 21.088,0 38.163-6.013 50.178-18.027l33.901-33.902c7.935-7.936 11.643-18.869 10.172-29.995zm-139.33-79.086l114.226,65.767c5.649,3.252 9.379,8.824 10.233,15.286 0.718,5.423-0.691,10.763-3.885,15.066l-151.805-86.638 6.165-6.165c6.631-6.631 16.941-7.994 25.066-3.316zm-243.406-286.811c6.463,0.855 12.034,4.585 15.286,10.234l65.767,114.226c4.68,8.127 3.316,18.435-3.315,25.065l-5.663,5.663-87.114-151.303c3.561-2.637 7.82-4.069 12.26-4.069 0.921-1.77636e-15 1.85,0.061 2.779,0.184zm328.055,419.187c-18.798,18.798-57.244,18.01-105.48-2.162-51.06-21.352-107.491-61.424-158.901-112.833-51.41-51.41-91.482-107.842-112.834-158.901-20.173-48.237-20.96-86.683-2.162-105.482l25.167-25.168 87.245,151.532-5.851,5.851c-11.415,11.416-12.409,29.488-2.311,42.04 14.609,18.156 30.68,36.024 47.764,53.108 17.086,17.085 34.954,33.156 53.109,47.765 12.55,10.098 30.622,9.105 42.04-2.312l5.338-5.338 152.016,86.759-25.14,25.141z" transform="matrix(0.05498022485293466 -0.006108913965043821 0.006108913965043821 0.05498022485293466 50.85728122159582 326.6857083874111)" fill="#8c8c8c"/><path d="M257.938,336.072c0,17.355-14.068,31.424-31.423,31.424c-17.354,0-31.422-14.068-31.422-31.424   c0-17.354,14.068-31.423,31.422-31.423C243.87,304.65,257.938,318.719,257.938,336.072z M385.485,304.65   c-17.354,0-31.423,14.068-31.423,31.424c0,17.354,14.069,31.422,31.423,31.422c17.354,0,31.424-14.068,31.424-31.422   C416.908,318.719,402.84,304.65,385.485,304.65z M612,318.557v59.719c0,29.982-24.305,54.287-54.288,54.287h-39.394   C479.283,540.947,379.604,606.412,306,606.412s-173.283-65.465-212.318-173.85H54.288C24.305,432.562,0,408.258,0,378.275v-59.719   c0-20.631,11.511-38.573,28.46-47.758c0.569-84.785,25.28-151.002,73.553-196.779C149.895,28.613,218.526,5.588,306,5.588   c87.474,0,156.105,23.025,203.987,68.43c48.272,45.777,72.982,111.995,73.553,196.779C600.489,279.983,612,297.925,612,318.557z    M497.099,336.271c0-13.969-0.715-27.094-1.771-39.812c-24.093-22.043-67.832-38.769-123.033-44.984   c7.248,8.15,13.509,18.871,17.306,32.983c-33.812-26.637-100.181-20.297-150.382-79.905c-2.878-3.329-5.367-6.51-7.519-9.417   c-0.025-0.035-0.053-0.062-0.078-0.096l0.006,0.002c-8.931-12.078-11.976-19.262-12.146-11.31   c-1.473,68.513-50.034,121.925-103.958,129.46c-0.341,7.535-0.62,15.143-0.62,23.08c0,28.959,4.729,55.352,12.769,79.137   c30.29,36.537,80.312,46.854,124.586,49.59c8.219-13.076,26.66-22.205,48.136-22.205c29.117,0,52.72,16.754,52.72,37.424   c0,20.668-23.604,37.422-52.72,37.422c-22.397,0-41.483-9.93-49.122-23.912c-30.943-1.799-64.959-7.074-95.276-21.391   C198.631,535.18,264.725,568.41,306,568.41C370.859,568.41,497.099,486.475,497.099,336.271z M550.855,264.269   C547.4,116.318,462.951,38.162,306,38.162S64.601,116.318,61.145,264.269h20.887c7.637-49.867,23.778-90.878,48.285-122.412   C169.37,91.609,228.478,66.13,306,66.13c77.522,0,136.63,25.479,175.685,75.727c24.505,31.533,40.647,72.545,48.284,122.412   H550.855L550.855,264.269z" transform="matrix(0.04897202744802372 -0.013992007443596632 0.013992007443596632 0.04897202744802372 120.73300581490253 262.29611437038363)" fill="#7d7d7d"/><g transform="matrix(0.0739435820348942 0.014311660795939938 -0.014311660795939938 0.0739435820348942 266.7314165430308 244.39451532553406)"><path d="m512 125.172v-29.172c0-6-3.576-11.423-9.091-13.787l-70-30c-1.867-.8-3.878-1.213-5.909-1.213h-25v-35c0-8.284-6.716-15-15-15-36.147 0-66.454 27.088-70.496 63.009-.021.181-.038.363-.051.545l-8.521 112.534c-3.392 44.796-26.775 84.78-64.154 109.699l-23.85 15.9c-48.796 32.531-77.928 86.964-77.928 145.609v32.704h-37c-41.355 0-75-33.645-75-75v-50c0-19.299 15.701-35 35-35s35 15.701 35 35v10c0 8.284 6.716 15 15 15s15-6.716 15-15v-10c0-35.841-29.159-65-65-65s-65 29.159-65 65v50c0 57.897 47.103 105 105 105h392c8.284 0 15-6.716 15-15v-20c0-30.327-24.673-55-55-55h-5v-30.698l16.898-27.037c21.953-35.125 20.581-79.601-3.494-113.306-8.769-12.277-13.404-26.741-13.404-41.828v-9.473c34.93-7.096 60-37.579 60-73.486zm-161.56 326.07c12.162 1.682 21.56 12.14 21.56 24.758v5h-35.041c6.517-8.662 11.204-18.773 13.481-29.758zm90.552-183.846c16.992 23.789 17.96 55.178 2.466 79.968l-19.178 30.686c-1.49 2.384-2.28 5.139-2.28 7.95v50c0 8.284 6.716 15 15 15h20c13.785 0 25 11.215 25 25v5h-80v-5c0-29.146-22.792-53.057-51.487-54.876-6.921-34.253-37.25-60.124-73.513-60.124-8.284 0-15 6.716-15 15s6.716 15 15 15c24.813 0 45 20.187 45 45s-20.187 45-45 45h-100-5v-32.704c0-48.591 24.138-93.693 64.568-120.647l23.85-15.9c21.983-14.656 40.653-34.457 53.991-57.264s21.442-48.787 23.437-75.132l8.499-112.24c1.823-15.37 11.985-27.903 25.655-33.28v32.167c0 8.284 6.716 15 15 15h36.921l58.079 24.891v19.281c0 22.089-15.814 40.756-37.603 44.388l-9.864 1.644c-7.232 1.206-12.533 7.463-12.533 14.796v22.131c0 21.376 6.567 41.87 18.992 59.265z" fill="#525252"/><circle cx="412" cy="121" r="15" fill="#525252"/></g><g transform="matrix(0.07873117178678513 0 0 0.07873117178678513 207.72736314684153 21.609361844534135)"><path d="M245.2,293.721h-58.7c-2.1,0-3.9-1.8-3.9-3.9v-155.6c0-2.1,1.8-3.9,3.9-3.9h58.7    c2.1,0,3.9,1.8,3.9,3.9v155.6C249.1,291.921,247.3,293.721,245.2,293.721z" fill="#4ab2f7"/><path d="M458.9,345.421c1.8-4.7-0.4-9.9-5.1-11.8c-4.7-1.8-9.9,0.4-11.8,5.1c-6.9,17.5-24.1,29.3-42.9,29.3H209.4    c-2.3,0-4.6,0.9-6.3,2.5l-86.6,82.9v-76.4c0-2.4-1-4.7-2.7-6.4c-1.7-1.7-4-2.7-6.4-2.7H64.2c-25.4,0-46.1-20.7-46.1-46.1v-204.3    c0-25.4,20.7-46.1,46.1-46.1h205.5c5,0,9.1-4.1,9.1-9.1s-4.1-9.1-9.1-9.1H64.2c-35.4,0-64.2,28.8-64.2,64.2v204.4    c0,35.4,28.8,64.2,64.2,64.2h34.2v88.6c0,3.6,2.2,6.9,5.5,8.3c1.1,0.5,2.4,0.7,3.6,0.7c2.3,0,4.6-0.9,6.3-2.5l99.3-95.1h186.1    C425.3,386.121,449.3,369.721,458.9,345.421z" fill="#000000"/><path d="M488.8,158.821c2.7-16.9-4.3-34.1-17.8-43.8c-7.7-5.5-16.7-8.4-26.1-8.4h-66.3v-47.4c0-21-6.2-36.2-18.4-45.1    c-19.3-14.2-45.7-6.1-46.8-5.8c-3.8,1.2-6.3,4.7-6.3,8.6v54.7c0,42.1-49.1,56.5-51.1,57.1c-0.2,0.1-0.4,0.2-0.6,0.2    c-3-4.6-8.2-7.7-14.2-7.7h-50.8c-9.3,0-16.9,7.6-16.9,16.9v147.7c0,9.3,7.6,16.9,16.9,16.9h50.8c4.7,0,8.9-1.9,12-5    c8.1,8.1,19.3,13.1,31.7,13.1h133.8c30.3,0,49.6-15.9,53.1-43.6L488.8,158.821z M240,284.621h-48.3v-145.2H240V284.621z     M470.9,156.021l-17.1,108.6c0,0.1,0,0.2,0,0.3c-2.3,18.5-14.1,27.9-35.1,27.9H284.9c-14.8,0-26.8-12-26.8-26.8v-119.5    c0.9,0,1.8,0,2.7-0.3c2.6-0.7,64.4-18.6,64.4-74.6v-47.3c6.6-0.9,16.8-1.1,24.4,4.4c7.3,5.4,10.9,15.6,10.9,30.5v56.5    c0,5,4.1,9.1,9.1,9.1H445c5.6,0,11,1.7,15.5,5C468.4,135.521,472.5,145.821,470.9,156.021z" fill="#000000"/></g><g transform="matrix(0.0739435820348942 0.014311660795939938 -0.014311660795939938 0.0739435820348942 332.73141550820725 -19.6054843597096)"><path d="m512 125.172v-29.172c0-6-3.576-11.423-9.091-13.787l-70-30c-1.867-.8-3.878-1.213-5.909-1.213h-25v-35c0-8.284-6.716-15-15-15-36.147 0-66.454 27.088-70.496 63.009-.021.181-.038.363-.051.545l-8.521 112.534c-3.392 44.796-26.775 84.78-64.154 109.699l-23.85 15.9c-48.796 32.531-77.928 86.964-77.928 145.609v32.704h-37c-41.355 0-75-33.645-75-75v-50c0-19.299 15.701-35 35-35s35 15.701 35 35v10c0 8.284 6.716 15 15 15s15-6.716 15-15v-10c0-35.841-29.159-65-65-65s-65 29.159-65 65v50c0 57.897 47.103 105 105 105h392c8.284 0 15-6.716 15-15v-20c0-30.327-24.673-55-55-55h-5v-30.698l16.898-27.037c21.953-35.125 20.581-79.601-3.494-113.306-8.769-12.277-13.404-26.741-13.404-41.828v-9.473c34.93-7.096 60-37.579 60-73.486zm-161.56 326.07c12.162 1.682 21.56 12.14 21.56 24.758v5h-35.041c6.517-8.662 11.204-18.773 13.481-29.758zm90.552-183.846c16.992 23.789 17.96 55.178 2.466 79.968l-19.178 30.686c-1.49 2.384-2.28 5.139-2.28 7.95v50c0 8.284 6.716 15 15 15h20c13.785 0 25 11.215 25 25v5h-80v-5c0-29.146-22.792-53.057-51.487-54.876-6.921-34.253-37.25-60.124-73.513-60.124-8.284 0-15 6.716-15 15s6.716 15 15 15c24.813 0 45 20.187 45 45s-20.187 45-45 45h-100-5v-32.704c0-48.591 24.138-93.693 64.568-120.647l23.85-15.9c21.983-14.656 40.653-34.457 53.991-57.264s21.442-48.787 23.437-75.132l8.499-112.24c1.823-15.37 11.985-27.903 25.655-33.28v32.167c0 8.284 6.716 15 15 15h36.921l58.079 24.891v19.281c0 22.089-15.814 40.756-37.603 44.388l-9.864 1.644c-7.232 1.206-12.533 7.463-12.533 14.796v22.131c0 21.376 6.567 41.87 18.992 59.265z" fill="#525252"/><circle cx="412" cy="121" r="15" fill="#525252"/></g><path d="m512 55.964844c-32.207031 1.484375-31.503906 1.363281-35.144531 1.667968l19.074219-54.472656s-59.539063 21.902344-74.632813 25.820313c-39.640625-35.628907-98.5625-37.203125-140.6875-11.3125-34.496094 21.207031-53.011719 57.625-46.835937 100.191406-67.136719-9.316406-123.703126-41.140625-168.363282-94.789063l-14.125-16.964843-10.554687 19.382812c-13.339844 24.492188-17.769531 52.496094-12.476563 78.851563 2.171875 10.8125 5.863282 21.125 10.976563 30.78125l-12.117188-4.695313-1.4375 20.246094c-1.457031 20.566406 5.390625 44.574219 18.320313 64.214844 3.640625 5.53125 8.328125 11.605469 14.269531 17.597656l-6.261719-.960937 7.640625 23.199218c10.042969 30.480469 30.902344 54.0625 57.972657 67.171875-27.035157 11.472657-48.875 18.792969-84.773438 30.601563l-32.84375 10.796875 30.335938 16.585937c11.566406 6.324219 52.4375 27.445313 92.820312 33.78125 89.765625 14.078125 190.832031 2.613282 258.871094-58.664062 57.308594-51.613282 76.113281-125.03125 72.207031-201.433594-.589844-11.566406 2.578125-22.605469 8.921875-31.078125 12.707031-16.964844 48.765625-66.40625 48.84375-66.519531zm-72.832031 48.550781c-10.535157 14.066406-15.8125 32.03125-14.867188 50.578125 3.941407 77.066406-17.027343 136.832031-62.328125 177.628906-52.917968 47.660156-138.273437 66.367188-234.171875 51.324219-17.367187-2.722656-35.316406-8.820313-50.171875-14.910156 30.097656-10.355469 53.339844-19.585938 90.875-37.351563l52.398438-24.800781-57.851563-3.703125c-27.710937-1.773438-50.785156-15.203125-64.96875-37.007812 7.53125-.4375 14.792969-1.65625 22.023438-3.671876l55.175781-15.367187-55.636719-13.625c-27.035156-6.621094-42.445312-22.796875-50.613281-35.203125-5.363281-8.152344-8.867188-16.503906-10.96875-24.203125 5.578125 1.496094 12.082031 2.5625 22.570312 3.601563l51.496094 5.09375-40.800781-31.828126c-29.398437-22.929687-41.179687-57.378906-32.542969-90.496093 91.75 95.164062 199.476563 88.011719 210.320313 90.527343-2.386719-23.183593-2.449219-23.238281-3.074219-25.445312-13.886719-49.089844 16.546875-74.015625 30.273438-82.453125 28.671874-17.621094 74.183593-20.277344 105.707031 8.753906 6.808593 6.265625 16.015625 8.730469 24.632812 6.589844 7.734375-1.921875 14.082031-3.957031 20.296875-6.171875l-12.9375 36.945312 16.515625.011719c-3.117187 4.179688-6.855469 9.183594-11.351562 15.183594zm0 0" transform="matrix(-0.07435357642179537 -0.01784485831421064 -0.01784485831421064 0.07435357642179537 143.77761210099231 206.55303227617682)" fill="#b0b0b0"/><path d="M486.554,186.811c-1.6-4.9-5.8-8.4-10.9-9.2l-152-21.6l-68.4-137.5c-2.3-4.6-7-7.5-12.1-7.5l0,0c-5.1,0-9.8,2.9-12.1,7.6   l-67.5,137.9l-152,22.6c-5.1,0.8-9.3,4.3-10.9,9.2s-0.2,10.3,3.5,13.8l110.3,106.9l-25.5,151.4c-0.9,5.1,1.2,10.2,5.4,13.2   c2.3,1.7,5.1,2.6,7.9,2.6c2.2,0,4.3-0.5,6.3-1.6l135.7-71.9l136.1,71.1c2,1,4.1,1.5,6.2,1.5l0,0c7.4,0,13.5-6.1,13.5-13.5   c0-1.1-0.1-2.1-0.4-3.1l-26.3-150.5l109.6-107.5C486.854,197.111,488.154,191.711,486.554,186.811z M349.554,293.911   c-3.2,3.1-4.6,7.6-3.8,12l22.9,131.3l-118.2-61.7c-3.9-2.1-8.6-2-12.6,0l-117.8,62.4l22.1-131.5c0.7-4.4-0.7-8.8-3.9-11.9   l-95.6-92.8l131.9-19.6c4.4-0.7,8.2-3.4,10.1-7.4l58.6-119.7l59.4,119.4c2,4,5.8,6.7,10.2,7.4l132,18.8L349.554,293.911z" transform="matrix(0.03860524895685722 0.011878538751516475 -0.011878538751516475 0.03860524895685722 1.4796940995772703 175.70291304588312)" id="L1_26" fill="#787878"/><path d="M486.554,186.811c-1.6-4.9-5.8-8.4-10.9-9.2l-152-21.6l-68.4-137.5c-2.3-4.6-7-7.5-12.1-7.5l0,0c-5.1,0-9.8,2.9-12.1,7.6   l-67.5,137.9l-152,22.6c-5.1,0.8-9.3,4.3-10.9,9.2s-0.2,10.3,3.5,13.8l110.3,106.9l-25.5,151.4c-0.9,5.1,1.2,10.2,5.4,13.2   c2.3,1.7,5.1,2.6,7.9,2.6c2.2,0,4.3-0.5,6.3-1.6l135.7-71.9l136.1,71.1c2,1,4.1,1.5,6.2,1.5l0,0c7.4,0,13.5-6.1,13.5-13.5   c0-1.1-0.1-2.1-0.4-3.1l-26.3-150.5l109.6-107.5C486.854,197.111,488.154,191.711,486.554,186.811z M349.554,293.911   c-3.2,3.1-4.6,7.6-3.8,12l22.9,131.3l-118.2-61.7c-3.9-2.1-8.6-2-12.6,0l-117.8,62.4l22.1-131.5c0.7-4.4-0.7-8.8-3.9-11.9   l-95.6-92.8l131.9-19.6c4.4-0.7,8.2-3.4,10.1-7.4l58.6-119.7l59.4,119.4c2,4,5.8,6.7,10.2,7.4l132,18.8L349.554,293.911z" transform="matrix(0.03860524895685722 0.011878538751516475 -0.011878538751516475 0.03860524895685722 331.4796940096762 105.70291333806158)" fill="#787878"/><path d="M486.554,186.811c-1.6-4.9-5.8-8.4-10.9-9.2l-152-21.6l-68.4-137.5c-2.3-4.6-7-7.5-12.1-7.5l0,0c-5.1,0-9.8,2.9-12.1,7.6   l-67.5,137.9l-152,22.6c-5.1,0.8-9.3,4.3-10.9,9.2s-0.2,10.3,3.5,13.8l110.3,106.9l-25.5,151.4c-0.9,5.1,1.2,10.2,5.4,13.2   c2.3,1.7,5.1,2.6,7.9,2.6c2.2,0,4.3-0.5,6.3-1.6l135.7-71.9l136.1,71.1c2,1,4.1,1.5,6.2,1.5l0,0c7.4,0,13.5-6.1,13.5-13.5   c0-1.1-0.1-2.1-0.4-3.1l-26.3-150.5l109.6-107.5C486.854,197.111,488.154,191.711,486.554,186.811z M349.554,293.911   c-3.2,3.1-4.6,7.6-3.8,12l22.9,131.3l-118.2-61.7c-3.9-2.1-8.6-2-12.6,0l-117.8,62.4l22.1-131.5c0.7-4.4-0.7-8.8-3.9-11.9   l-95.6-92.8l131.9-19.6c4.4-0.7,8.2-3.4,10.1-7.4l58.6-119.7l59.4,119.4c2,4,5.8,6.7,10.2,7.4l132,18.8L349.554,293.911z" transform="matrix(0.03860524895685722 0.011878538751516475 -0.011878538751516475 0.03860524895685722 41.47969400967622 28.702913338061578)" fill="#787878"/><path d="M486.554,186.811c-1.6-4.9-5.8-8.4-10.9-9.2l-152-21.6l-68.4-137.5c-2.3-4.6-7-7.5-12.1-7.5l0,0c-5.1,0-9.8,2.9-12.1,7.6   l-67.5,137.9l-152,22.6c-5.1,0.8-9.3,4.3-10.9,9.2s-0.2,10.3,3.5,13.8l110.3,106.9l-25.5,151.4c-0.9,5.1,1.2,10.2,5.4,13.2   c2.3,1.7,5.1,2.6,7.9,2.6c2.2,0,4.3-0.5,6.3-1.6l135.7-71.9l136.1,71.1c2,1,4.1,1.5,6.2,1.5l0,0c7.4,0,13.5-6.1,13.5-13.5   c0-1.1-0.1-2.1-0.4-3.1l-26.3-150.5l109.6-107.5C486.854,197.111,488.154,191.711,486.554,186.811z M349.554,293.911   c-3.2,3.1-4.6,7.6-3.8,12l22.9,131.3l-118.2-61.7c-3.9-2.1-8.6-2-12.6,0l-117.8,62.4l22.1-131.5c0.7-4.4-0.7-8.8-3.9-11.9   l-95.6-92.8l131.9-19.6c4.4-0.7,8.2-3.4,10.1-7.4l58.6-119.7l59.4,119.4c2,4,5.8,6.7,10.2,7.4l132,18.8L349.554,293.911z" transform="matrix(0.03860524895685722 0.011878538751516475 -0.011878538751516475 0.03860524895685722 239.47969400967622 280.7029133380616)" fill="#787878"/><path d="M486.554,186.811c-1.6-4.9-5.8-8.4-10.9-9.2l-152-21.6l-68.4-137.5c-2.3-4.6-7-7.5-12.1-7.5l0,0c-5.1,0-9.8,2.9-12.1,7.6   l-67.5,137.9l-152,22.6c-5.1,0.8-9.3,4.3-10.9,9.2s-0.2,10.3,3.5,13.8l110.3,106.9l-25.5,151.4c-0.9,5.1,1.2,10.2,5.4,13.2   c2.3,1.7,5.1,2.6,7.9,2.6c2.2,0,4.3-0.5,6.3-1.6l135.7-71.9l136.1,71.1c2,1,4.1,1.5,6.2,1.5l0,0c7.4,0,13.5-6.1,13.5-13.5   c0-1.1-0.1-2.1-0.4-3.1l-26.3-150.5l109.6-107.5C486.854,197.111,488.154,191.711,486.554,186.811z M349.554,293.911   c-3.2,3.1-4.6,7.6-3.8,12l22.9,131.3l-118.2-61.7c-3.9-2.1-8.6-2-12.6,0l-117.8,62.4l22.1-131.5c0.7-4.4-0.7-8.8-3.9-11.9   l-95.6-92.8l131.9-19.6c4.4-0.7,8.2-3.4,10.1-7.4l58.6-119.7l59.4,119.4c2,4,5.8,6.7,10.2,7.4l132,18.8L349.554,293.911z" transform="matrix(0.03860524895685722 0.011878538751516475 -0.011878538751516475 0.03860524895685722 297.4796940096762 284.7029133380616)" fill="#787878"/><path d="M486.554,186.811c-1.6-4.9-5.8-8.4-10.9-9.2l-152-21.6l-68.4-137.5c-2.3-4.6-7-7.5-12.1-7.5l0,0c-5.1,0-9.8,2.9-12.1,7.6   l-67.5,137.9l-152,22.6c-5.1,0.8-9.3,4.3-10.9,9.2s-0.2,10.3,3.5,13.8l110.3,106.9l-25.5,151.4c-0.9,5.1,1.2,10.2,5.4,13.2   c2.3,1.7,5.1,2.6,7.9,2.6c2.2,0,4.3-0.5,6.3-1.6l135.7-71.9l136.1,71.1c2,1,4.1,1.5,6.2,1.5l0,0c7.4,0,13.5-6.1,13.5-13.5   c0-1.1-0.1-2.1-0.4-3.1l-26.3-150.5l109.6-107.5C486.854,197.111,488.154,191.711,486.554,186.811z M349.554,293.911   c-3.2,3.1-4.6,7.6-3.8,12l22.9,131.3l-118.2-61.7c-3.9-2.1-8.6-2-12.6,0l-117.8,62.4l22.1-131.5c0.7-4.4-0.7-8.8-3.9-11.9   l-95.6-92.8l131.9-19.6c4.4-0.7,8.2-3.4,10.1-7.4l58.6-119.7l59.4,119.4c2,4,5.8,6.7,10.2,7.4l132,18.8L349.554,293.911z" transform="matrix(0.03860524895685722 0.011878538751516475 -0.011878538751516475 0.03860524895685722 36.47969400967622 75.70291333806158)" fill="#787878"/><path d="M486.554,186.811c-1.6-4.9-5.8-8.4-10.9-9.2l-152-21.6l-68.4-137.5c-2.3-4.6-7-7.5-12.1-7.5l0,0c-5.1,0-9.8,2.9-12.1,7.6   l-67.5,137.9l-152,22.6c-5.1,0.8-9.3,4.3-10.9,9.2s-0.2,10.3,3.5,13.8l110.3,106.9l-25.5,151.4c-0.9,5.1,1.2,10.2,5.4,13.2   c2.3,1.7,5.1,2.6,7.9,2.6c2.2,0,4.3-0.5,6.3-1.6l135.7-71.9l136.1,71.1c2,1,4.1,1.5,6.2,1.5l0,0c7.4,0,13.5-6.1,13.5-13.5   c0-1.1-0.1-2.1-0.4-3.1l-26.3-150.5l109.6-107.5C486.854,197.111,488.154,191.711,486.554,186.811z M349.554,293.911   c-3.2,3.1-4.6,7.6-3.8,12l22.9,131.3l-118.2-61.7c-3.9-2.1-8.6-2-12.6,0l-117.8,62.4l22.1-131.5c0.7-4.4-0.7-8.8-3.9-11.9   l-95.6-92.8l131.9-19.6c4.4-0.7,8.2-3.4,10.1-7.4l58.6-119.7l59.4,119.4c2,4,5.8,6.7,10.2,7.4l132,18.8L349.554,293.911z" transform="matrix(0.03860524895685722 0.011878538751516475 -0.011878538751516475 0.03860524895685722 41.47969400967622 -8.29708666193842)" fill="#787878"/><path d="M486.554,186.811c-1.6-4.9-5.8-8.4-10.9-9.2l-152-21.6l-68.4-137.5c-2.3-4.6-7-7.5-12.1-7.5l0,0c-5.1,0-9.8,2.9-12.1,7.6   l-67.5,137.9l-152,22.6c-5.1,0.8-9.3,4.3-10.9,9.2s-0.2,10.3,3.5,13.8l110.3,106.9l-25.5,151.4c-0.9,5.1,1.2,10.2,5.4,13.2   c2.3,1.7,5.1,2.6,7.9,2.6c2.2,0,4.3-0.5,6.3-1.6l135.7-71.9l136.1,71.1c2,1,4.1,1.5,6.2,1.5l0,0c7.4,0,13.5-6.1,13.5-13.5   c0-1.1-0.1-2.1-0.4-3.1l-26.3-150.5l109.6-107.5C486.854,197.111,488.154,191.711,486.554,186.811z M349.554,293.911   c-3.2,3.1-4.6,7.6-3.8,12l22.9,131.3l-118.2-61.7c-3.9-2.1-8.6-2-12.6,0l-117.8,62.4l22.1-131.5c0.7-4.4-0.7-8.8-3.9-11.9   l-95.6-92.8l131.9-19.6c4.4-0.7,8.2-3.4,10.1-7.4l58.6-119.7l59.4,119.4c2,4,5.8,6.7,10.2,7.4l132,18.8L349.554,293.911z" transform="matrix(0.03860524895685722 0.011878538751516475 -0.011878538751516475 0.03860524895685722 185.47969400967622 136.7029133380616)" fill="#787878"/><path d="M486.554,186.811c-1.6-4.9-5.8-8.4-10.9-9.2l-152-21.6l-68.4-137.5c-2.3-4.6-7-7.5-12.1-7.5l0,0c-5.1,0-9.8,2.9-12.1,7.6   l-67.5,137.9l-152,22.6c-5.1,0.8-9.3,4.3-10.9,9.2s-0.2,10.3,3.5,13.8l110.3,106.9l-25.5,151.4c-0.9,5.1,1.2,10.2,5.4,13.2   c2.3,1.7,5.1,2.6,7.9,2.6c2.2,0,4.3-0.5,6.3-1.6l135.7-71.9l136.1,71.1c2,1,4.1,1.5,6.2,1.5l0,0c7.4,0,13.5-6.1,13.5-13.5   c0-1.1-0.1-2.1-0.4-3.1l-26.3-150.5l109.6-107.5C486.854,197.111,488.154,191.711,486.554,186.811z M349.554,293.911   c-3.2,3.1-4.6,7.6-3.8,12l22.9,131.3l-118.2-61.7c-3.9-2.1-8.6-2-12.6,0l-117.8,62.4l22.1-131.5c0.7-4.4-0.7-8.8-3.9-11.9   l-95.6-92.8l131.9-19.6c4.4-0.7,8.2-3.4,10.1-7.4l58.6-119.7l59.4,119.4c2,4,5.8,6.7,10.2,7.4l132,18.8L349.554,293.911z" transform="matrix(0.03860524895685722 0.011878538751516475 -0.011878538751516475 0.03860524895685722 271.4796940096762 191.7029133380616)" fill="#787878"/></defs><g fi:class="KUsePattern" opacity="0.25"><pattern id="pattern_L1_6" width="350" height="350" patternUnits="userSpaceOnUse"><use xlink:href="#L1_6" x="-350" y="-350"/><use xlink:href="#L1_6" x="0" y="-350"/><use xlink:href="#L1_6" x="350" y="-350"/><use xlink:href="#L1_6" x="-350" y="0"/><use xlink:href="#L1_6" x="0" y="0"/><use xlink:href="#L1_6" x="350" y="0"/><use xlink:href="#L1_6" x="-350" y="350"/><use xlink:href="#L1_6" x="0" y="350"/><use xlink:href="#L1_6" x="350" y="350"/></pattern><rect x="0" y="0" width="100%" height="100%" fill="url(#pattern_L1_6)"/></g><g fi:class="KUsePattern" opacity="0.13"><pattern id="pattern_L1_13" width="350" height="350" patternUnits="userSpaceOnUse"><use xlink:href="#L1_13" x="-350" y="-350"/><use xlink:href="#L1_13" x="0" y="-350"/><use xlink:href="#L1_13" x="350" y="-350"/><use xlink:href="#L1_13" x="-350" y="0"/><use xlink:href="#L1_13" x="0" y="0"/><use xlink:href="#L1_13" x="350" y="0"/><use xlink:href="#L1_13" x="-350" y="350"/><use xlink:href="#L1_13" x="0" y="350"/><use xlink:href="#L1_13" x="350" y="350"/></pattern><rect x="0" y="0" width="100%" height="100%" fill="url(#pattern_L1_13)"/></g><g fi:class="KUsePattern" opacity="0.32"><pattern id="pattern_L1_9" width="350" height="350" patternUnits="userSpaceOnUse"><use xlink:href="#L1_9" x="-350" y="-350"/><use xlink:href="#L1_9" x="0" y="-350"/><use xlink:href="#L1_9" x="350" y="-350"/><use xlink:href="#L1_9" x="-350" y="0"/><use xlink:href="#L1_9" x="0" y="0"/><use xlink:href="#L1_9" x="350" y="0"/><use xlink:href="#L1_9" x="-350" y="350"/><use xlink:href="#L1_9" x="0" y="350"/><use xlink:href="#L1_9" x="350" y="350"/></pattern><rect x="0" y="0" width="100%" height="100%" fill="url(#pattern_L1_9)"/></g><g fi:class="KUsePattern" opacity="0.19"><pattern id="pattern_L1_10" width="350" height="350" patternUnits="userSpaceOnUse"><use xlink:href="#L1_10" x="-350" y="-350"/><use xlink:href="#L1_10" x="0" y="-350"/><use xlink:href="#L1_10" x="350" y="-350"/><use xlink:href="#L1_10" x="-350" y="0"/><use xlink:href="#L1_10" x="0" y="0"/><use xlink:href="#L1_10" x="350" y="0"/><use xlink:href="#L1_10" x="-350" y="350"/><use xlink:href="#L1_10" x="0" y="350"/><use xlink:href="#L1_10" x="350" y="350"/></pattern><rect x="0" y="0" width="100%" height="100%" fill="url(#pattern_L1_10)"/></g><g fi:class="KUsePattern" opacity="0.29"><pattern id="pattern_L1_14" width="350" height="350" patternUnits="userSpaceOnUse"><use xlink:href="#L1_14" x="-350" y="-350"/><use xlink:href="#L1_14" x="0" y="-350"/><use xlink:href="#L1_14" x="350" y="-350"/><use xlink:href="#L1_14" x="-350" y="0"/><use xlink:href="#L1_14" x="0" y="0"/><use xlink:href="#L1_14" x="350" y="0"/><use xlink:href="#L1_14" x="-350" y="350"/><use xlink:href="#L1_14" x="0" y="350"/><use xlink:href="#L1_14" x="350" y="350"/></pattern><rect x="0" y="0" width="100%" height="100%" fill="url(#pattern_L1_14)"/></g><g fi:class="KUsePattern" opacity="0.13"><pattern id="pattern_L1_15" width="350" height="350" patternUnits="userSpaceOnUse"><use xlink:href="#L1_15" x="-350" y="-350"/><use xlink:href="#L1_15" x="0" y="-350"/><use xlink:href="#L1_15" x="350" y="-350"/><use xlink:href="#L1_15" x="-350" y="0"/><use xlink:href="#L1_15" x="0" y="0"/><use xlink:href="#L1_15" x="350" y="0"/><use xlink:href="#L1_15" x="-350" y="350"/><use xlink:href="#L1_15" x="0" y="350"/><use xlink:href="#L1_15" x="350" y="350"/></pattern><rect x="0" y="0" width="100%" height="100%" fill="url(#pattern_L1_15)"/></g><g fi:class="KUsePattern" opacity="0.27"><pattern id="pattern_L1_16" width="350" height="350" patternUnits="userSpaceOnUse"><use xlink:href="#L1_16" x="-350" y="-350"/><use xlink:href="#L1_16" x="0" y="-350"/><use xlink:href="#L1_16" x="350" y="-350"/><use xlink:href="#L1_16" x="-350" y="0"/><use xlink:href="#L1_16" x="0" y="0"/><use xlink:href="#L1_16" x="350" y="0"/><use xlink:href="#L1_16" x="-350" y="350"/><use xlink:href="#L1_16" x="0" y="350"/><use xlink:href="#L1_16" x="350" y="350"/></pattern><rect x="0" y="0" width="100%" height="100%" fill="url(#pattern_L1_16)"/></g><g fi:class="KUsePattern" opacity="0.17"><pattern id="pattern_L1_18" width="350" height="350" patternUnits="userSpaceOnUse"><use xlink:href="#L1_18" x="-350" y="-350"/><use xlink:href="#L1_18" x="0" y="-350"/><use xlink:href="#L1_18" x="350" y="-350"/><use xlink:href="#L1_18" x="-350" y="0"/><use xlink:href="#L1_18" x="0" y="0"/><use xlink:href="#L1_18" x="350" y="0"/><use xlink:href="#L1_18" x="-350" y="350"/><use xlink:href="#L1_18" x="0" y="350"/><use xlink:href="#L1_18" x="350" y="350"/></pattern><rect x="0" y="0" width="100%" height="100%" fill="url(#pattern_L1_18)"/></g><g fi:class="KUsePattern" opacity="0.05"><pattern id="pattern_L1_17" width="350" height="350" patternUnits="userSpaceOnUse"><use xlink:href="#L1_17" x="-350" y="-350"/><use xlink:href="#L1_17" x="0" y="-350"/><use xlink:href="#L1_17" x="350" y="-350"/><use xlink:href="#L1_17" x="-350" y="0"/><use xlink:href="#L1_17" x="0" y="0"/><use xlink:href="#L1_17" x="350" y="0"/><use xlink:href="#L1_17" x="-350" y="350"/><use xlink:href="#L1_17" x="0" y="350"/><use xlink:href="#L1_17" x="350" y="350"/></pattern><rect x="0" y="0" width="100%" height="100%" fill="url(#pattern_L1_17)"/></g><g fi:class="KUsePattern" transform="matrix(1 0 0 1 20 20)" opacity="0.13"><pattern id="pattern_UNKNOWN" width="350" height="350" patternUnits="userSpaceOnUse"><use xlink:href="#UNKNOWN" x="-350" y="-350"/><use xlink:href="#UNKNOWN" x="0" y="-350"/><use xlink:href="#UNKNOWN" x="350" y="-350"/><use xlink:href="#UNKNOWN" x="-350" y="0"/><use xlink:href="#UNKNOWN" x="0" y="0"/><use xlink:href="#UNKNOWN" x="350" y="0"/><use xlink:href="#UNKNOWN" x="-350" y="350"/><use xlink:href="#UNKNOWN" x="0" y="350"/><use xlink:href="#UNKNOWN" x="350" y="350"/></pattern><rect x="0" y="0" width="100%" height="100%" fill="url(#pattern_UNKNOWN)"/></g><g fi:class="KUsePattern" opacity="0.19"><pattern id="pattern_L1_22" width="350" height="350" patternUnits="userSpaceOnUse"><use xlink:href="#L1_22" x="-350" y="-350"/><use xlink:href="#L1_22" x="0" y="-350"/><use xlink:href="#L1_22" x="350" y="-350"/><use xlink:href="#L1_22" x="-350" y="0"/><use xlink:href="#L1_22" x="0" y="0"/><use xlink:href="#L1_22" x="350" y="0"/><use xlink:href="#L1_22" x="-350" y="350"/><use xlink:href="#L1_22" x="0" y="350"/><use xlink:href="#L1_22" x="350" y="350"/></pattern><rect x="0" y="0" width="100%" height="100%" fill="url(#pattern_L1_22)"/></g><g fi:class="KUsePattern" transform="matrix(1 0 0 1 20 20)" opacity="0.1"><pattern id="pattern_UNKNOWN" width="350" height="350" patternUnits="userSpaceOnUse"><use xlink:href="#UNKNOWN" x="-350" y="-350"/><use xlink:href="#UNKNOWN" x="0" y="-350"/><use xlink:href="#UNKNOWN" x="350" y="-350"/><use xlink:href="#UNKNOWN" x="-350" y="0"/><use xlink:href="#UNKNOWN" x="0" y="0"/><use xlink:href="#UNKNOWN" x="350" y="0"/><use xlink:href="#UNKNOWN" x="-350" y="350"/><use xlink:href="#UNKNOWN" x="0" y="350"/><use xlink:href="#UNKNOWN" x="350" y="350"/></pattern><rect x="0" y="0" width="100%" height="100%" fill="url(#pattern_UNKNOWN)"/></g><g fi:class="KUsePattern" opacity="0.24"><pattern id="pattern_L1_24" width="350" height="350" patternUnits="userSpaceOnUse"><use xlink:href="#L1_24" x="-350" y="-350"/><use xlink:href="#L1_24" x="0" y="-350"/><use xlink:href="#L1_24" x="350" y="-350"/><use xlink:href="#L1_24" x="-350" y="0"/><use xlink:href="#L1_24" x="0" y="0"/><use xlink:href="#L1_24" x="350" y="0"/><use xlink:href="#L1_24" x="-350" y="350"/><use xlink:href="#L1_24" x="0" y="350"/><use xlink:href="#L1_24" x="350" y="350"/></pattern><rect x="0" y="0" width="100%" height="100%" fill="url(#pattern_L1_24)"/></g><g fi:class="KUsePattern" opacity="0.17"><pattern id="pattern_L1_23" width="350" height="350" patternUnits="userSpaceOnUse"><use xlink:href="#L1_23" x="-350" y="-350"/><use xlink:href="#L1_23" x="0" y="-350"/><use xlink:href="#L1_23" x="350" y="-350"/><use xlink:href="#L1_23" x="-350" y="0"/><use xlink:href="#L1_23" x="0" y="0"/><use xlink:href="#L1_23" x="350" y="0"/><use xlink:href="#L1_23" x="-350" y="350"/><use xlink:href="#L1_23" x="0" y="350"/><use xlink:href="#L1_23" x="350" y="350"/></pattern><rect x="0" y="0" width="100%" height="100%" fill="url(#pattern_L1_23)"/></g><g fi:class="KUsePattern" transform="matrix(1 0 0 1 20 20)" opacity="0.24"><pattern id="pattern_UNKNOWN" width="350" height="350" patternUnits="userSpaceOnUse"><use xlink:href="#UNKNOWN" x="-350" y="-350"/><use xlink:href="#UNKNOWN" x="0" y="-350"/><use xlink:href="#UNKNOWN" x="350" y="-350"/><use xlink:href="#UNKNOWN" x="-350" y="0"/><use xlink:href="#UNKNOWN" x="0" y="0"/><use xlink:href="#UNKNOWN" x="350" y="0"/><use xlink:href="#UNKNOWN" x="-350" y="350"/><use xlink:href="#UNKNOWN" x="0" y="350"/><use xlink:href="#UNKNOWN" x="350" y="350"/></pattern><rect x="0" y="0" width="100%" height="100%" fill="url(#pattern_UNKNOWN)"/></g><g fi:class="KUsePattern" transform="matrix(1 0 0 1 20 20)" opacity="0.36"><pattern id="pattern_UNKNOWN" width="350" height="350" patternUnits="userSpaceOnUse"><use xlink:href="#UNKNOWN" x="-350" y="-350"/><use xlink:href="#UNKNOWN" x="0" y="-350"/><use xlink:href="#UNKNOWN" x="350" y="-350"/><use xlink:href="#UNKNOWN" x="-350" y="0"/><use xlink:href="#UNKNOWN" x="0" y="0"/><use xlink:href="#UNKNOWN" x="350" y="0"/><use xlink:href="#UNKNOWN" x="-350" y="350"/><use xlink:href="#UNKNOWN" x="0" y="350"/><use xlink:href="#UNKNOWN" x="350" y="350"/></pattern><rect x="0" y="0" width="100%" height="100%" fill="url(#pattern_UNKNOWN)"/></g><g fi:class="KUsePattern" transform="matrix(1 0 0 1 20 20)" opacity="0.18"><pattern id="pattern_UNKNOWN" width="350" height="350" patternUnits="userSpaceOnUse"><use xlink:href="#UNKNOWN" x="-350" y="-350"/><use xlink:href="#UNKNOWN" x="0" y="-350"/><use xlink:href="#UNKNOWN" x="350" y="-350"/><use xlink:href="#UNKNOWN" x="-350" y="0"/><use xlink:href="#UNKNOWN" x="0" y="0"/><use xlink:href="#UNKNOWN" x="350" y="0"/><use xlink:href="#UNKNOWN" x="-350" y="350"/><use xlink:href="#UNKNOWN" x="0" y="350"/><use xlink:href="#UNKNOWN" x="350" y="350"/></pattern><rect x="0" y="0" width="100%" height="100%" fill="url(#pattern_UNKNOWN)"/></g><g fi:class="KUsePattern" transform="matrix(1 0 0 1 20 20)" opacity="0.05"><pattern id="pattern_UNKNOWN" width="350" height="350" patternUnits="userSpaceOnUse"><use xlink:href="#UNKNOWN" x="-350" y="-350"/><use xlink:href="#UNKNOWN" x="0" y="-350"/><use xlink:href="#UNKNOWN" x="350" y="-350"/><use xlink:href="#UNKNOWN" x="-350" y="0"/><use xlink:href="#UNKNOWN" x="0" y="0"/><use xlink:href="#UNKNOWN" x="350" y="0"/><use xlink:href="#UNKNOWN" x="-350" y="350"/><use xlink:href="#UNKNOWN" x="0" y="350"/><use xlink:href="#UNKNOWN" x="350" y="350"/></pattern><rect x="0" y="0" width="100%" height="100%" fill="url(#pattern_UNKNOWN)"/></g><g fi:class="KUsePattern" opacity="0.3"><pattern id="pattern_L1_25" width="350" height="350" patternUnits="userSpaceOnUse"><use xlink:href="#L1_25" x="-350" y="-350"/><use xlink:href="#L1_25" x="0" y="-350"/><use xlink:href="#L1_25" x="350" y="-350"/><use xlink:href="#L1_25" x="-350" y="0"/><use xlink:href="#L1_25" x="0" y="0"/><use xlink:href="#L1_25" x="350" y="0"/><use xlink:href="#L1_25" x="-350" y="350"/><use xlink:href="#L1_25" x="0" y="350"/><use xlink:href="#L1_25" x="350" y="350"/></pattern><rect x="0" y="0" width="100%" height="100%" fill="url(#pattern_L1_25)"/></g><g fi:class="KUsePattern" transform="matrix(1 0 0 1 20 20)" opacity="0.17"><pattern id="pattern_UNKNOWN" width="350" height="350" patternUnits="userSpaceOnUse"><use xlink:href="#UNKNOWN" x="-350" y="-350"/><use xlink:href="#UNKNOWN" x="0" y="-350"/><use xlink:href="#UNKNOWN" x="350" y="-350"/><use xlink:href="#UNKNOWN" x="-350" y="0"/><use xlink:href="#UNKNOWN" x="0" y="0"/><use xlink:href="#UNKNOWN" x="350" y="0"/><use xlink:href="#UNKNOWN" x="-350" y="350"/><use xlink:href="#UNKNOWN" x="0" y="350"/><use xlink:href="#UNKNOWN" x="350" y="350"/></pattern><rect x="0" y="0" width="100%" height="100%" fill="url(#pattern_UNKNOWN)"/></g><g fi:class="KUsePattern" transform="matrix(1 0 0 1 40 40)" opacity="0.27"><pattern id="pattern_UNKNOWN" width="350" height="350" patternUnits="userSpaceOnUse"><use xlink:href="#UNKNOWN" x="-350" y="-350"/><use xlink:href="#UNKNOWN" x="0" y="-350"/><use xlink:href="#UNKNOWN" x="350" y="-350"/><use xlink:href="#UNKNOWN" x="-350" y="0"/><use xlink:href="#UNKNOWN" x="0" y="0"/><use xlink:href="#UNKNOWN" x="350" y="0"/><use xlink:href="#UNKNOWN" x="-350" y="350"/><use xlink:href="#UNKNOWN" x="0" y="350"/><use xlink:href="#UNKNOWN" x="350" y="350"/></pattern><rect x="0" y="0" width="100%" height="100%" fill="url(#pattern_UNKNOWN)"/></g><g fi:class="KUsePattern" transform="matrix(1 0 0 1 40 40)" opacity="0.17"><pattern id="pattern_UNKNOWN" width="350" height="350" patternUnits="userSpaceOnUse"><use xlink:href="#UNKNOWN" x="-350" y="-350"/><use xlink:href="#UNKNOWN" x="0" y="-350"/><use xlink:href="#UNKNOWN" x="350" y="-350"/><use xlink:href="#UNKNOWN" x="-350" y="0"/><use xlink:href="#UNKNOWN" x="0" y="0"/><use xlink:href="#UNKNOWN" x="350" y="0"/><use xlink:href="#UNKNOWN" x="-350" y="350"/><use xlink:href="#UNKNOWN" x="0" y="350"/><use xlink:href="#UNKNOWN" x="350" y="350"/></pattern><rect x="0" y="0" width="100%" height="100%" fill="url(#pattern_UNKNOWN)"/></g><g fi:class="KUsePattern" transform="matrix(1 0 0 1 20 20)" opacity="0.13"><pattern id="pattern_UNKNOWN" width="350" height="350" patternUnits="userSpaceOnUse"><use xlink:href="#UNKNOWN" x="-350" y="-350"/><use xlink:href="#UNKNOWN" x="0" y="-350"/><use xlink:href="#UNKNOWN" x="350" y="-350"/><use xlink:href="#UNKNOWN" x="-350" y="0"/><use xlink:href="#UNKNOWN" x="0" y="0"/><use xlink:href="#UNKNOWN" x="350" y="0"/><use xlink:href="#UNKNOWN" x="-350" y="350"/><use xlink:href="#UNKNOWN" x="0" y="350"/><use xlink:href="#UNKNOWN" x="350" y="350"/></pattern><rect x="0" y="0" width="100%" height="100%" fill="url(#pattern_UNKNOWN)"/></g><g fi:class="KUsePattern" transform="matrix(1 0 0 1 40 40)" opacity="0.24"><pattern id="pattern_UNKNOWN" width="350" height="350" patternUnits="userSpaceOnUse"><use xlink:href="#UNKNOWN" x="-350" y="-350"/><use xlink:href="#UNKNOWN" x="0" y="-350"/><use xlink:href="#UNKNOWN" x="350" y="-350"/><use xlink:href="#UNKNOWN" x="-350" y="0"/><use xlink:href="#UNKNOWN" x="0" y="0"/><use xlink:href="#UNKNOWN" x="350" y="0"/><use xlink:href="#UNKNOWN" x="-350" y="350"/><use xlink:href="#UNKNOWN" x="0" y="350"/><use xlink:href="#UNKNOWN" x="350" y="350"/></pattern><rect x="0" y="0" width="100%" height="100%" fill="url(#pattern_UNKNOWN)"/></g><g fi:class="KUsePattern" transform="matrix(1 0 0 1 40 40)" opacity="0.32"><pattern id="pattern_UNKNOWN" width="350" height="350" patternUnits="userSpaceOnUse"><use xlink:href="#UNKNOWN" x="-350" y="-350"/><use xlink:href="#UNKNOWN" x="0" y="-350"/><use xlink:href="#UNKNOWN" x="350" y="-350"/><use xlink:href="#UNKNOWN" x="-350" y="0"/><use xlink:href="#UNKNOWN" x="0" y="0"/><use xlink:href="#UNKNOWN" x="350" y="0"/><use xlink:href="#UNKNOWN" x="-350" y="350"/><use xlink:href="#UNKNOWN" x="0" y="350"/><use xlink:href="#UNKNOWN" x="350" y="350"/></pattern><rect x="0" y="0" width="100%" height="100%" fill="url(#pattern_UNKNOWN)"/></g><g fi:class="KUsePattern" transform="matrix(1 0 0 1 40 40)" opacity="0.24"><pattern id="pattern_UNKNOWN" width="350" height="350" patternUnits="userSpaceOnUse"><use xlink:href="#UNKNOWN" x="-350" y="-350"/><use xlink:href="#UNKNOWN" x="0" y="-350"/><use xlink:href="#UNKNOWN" x="350" y="-350"/><use xlink:href="#UNKNOWN" x="-350" y="0"/><use xlink:href="#UNKNOWN" x="0" y="0"/><use xlink:href="#UNKNOWN" x="350" y="0"/><use xlink:href="#UNKNOWN" x="-350" y="350"/><use xlink:href="#UNKNOWN" x="0" y="350"/><use xlink:href="#UNKNOWN" x="350" y="350"/></pattern><rect x="0" y="0" width="100%" height="100%" fill="url(#pattern_UNKNOWN)"/></g><g fi:class="KUsePattern" transform="matrix(1 0 0 1 40 40)" opacity="0.24"><pattern id="pattern_UNKNOWN" width="350" height="350" patternUnits="userSpaceOnUse"><use xlink:href="#UNKNOWN" x="-350" y="-350"/><use xlink:href="#UNKNOWN" x="0" y="-350"/><use xlink:href="#UNKNOWN" x="350" y="-350"/><use xlink:href="#UNKNOWN" x="-350" y="0"/><use xlink:href="#UNKNOWN" x="0" y="0"/><use xlink:href="#UNKNOWN" x="350" y="0"/><use xlink:href="#UNKNOWN" x="-350" y="350"/><use xlink:href="#UNKNOWN" x="0" y="350"/><use xlink:href="#UNKNOWN" x="350" y="350"/></pattern><rect x="0" y="0" width="100%" height="100%" fill="url(#pattern_UNKNOWN)"/></g><g fi:class="KUsePattern" transform="matrix(1 0 0 1 40 40)" opacity="0.24"><pattern id="pattern_UNKNOWN" width="350" height="350" patternUnits="userSpaceOnUse"><use xlink:href="#UNKNOWN" x="-350" y="-350"/><use xlink:href="#UNKNOWN" x="0" y="-350"/><use xlink:href="#UNKNOWN" x="350" y="-350"/><use xlink:href="#UNKNOWN" x="-350" y="0"/><use xlink:href="#UNKNOWN" x="0" y="0"/><use xlink:href="#UNKNOWN" x="350" y="0"/><use xlink:href="#UNKNOWN" x="-350" y="350"/><use xlink:href="#UNKNOWN" x="0" y="350"/><use xlink:href="#UNKNOWN" x="350" y="350"/></pattern><rect x="0" y="0" width="100%" height="100%" fill="url(#pattern_UNKNOWN)"/></g><g fi:class="KUsePattern" transform="matrix(1 0 0 1 20 20)" opacity="0.3"><pattern id="pattern_UNKNOWN" width="350" height="350" patternUnits="userSpaceOnUse"><use xlink:href="#UNKNOWN" x="-350" y="-350"/><use xlink:href="#UNKNOWN" x="0" y="-350"/><use xlink:href="#UNKNOWN" x="350" y="-350"/><use xlink:href="#UNKNOWN" x="-350" y="0"/><use xlink:href="#UNKNOWN" x="0" y="0"/><use xlink:href="#UNKNOWN" x="350" y="0"/><use xlink:href="#UNKNOWN" x="-350" y="350"/><use xlink:href="#UNKNOWN" x="0" y="350"/><use xlink:href="#UNKNOWN" x="350" y="350"/></pattern><rect x="0" y="0" width="100%" height="100%" fill="url(#pattern_UNKNOWN)"/></g><g fi:class="KUsePattern" transform="matrix(1 0 0 1 20 20)" opacity="0.13"><pattern id="pattern_UNKNOWN" width="350" height="350" patternUnits="userSpaceOnUse"><use xlink:href="#UNKNOWN" x="-350" y="-350"/><use xlink:href="#UNKNOWN" x="0" y="-350"/><use xlink:href="#UNKNOWN" x="350" y="-350"/><use xlink:href="#UNKNOWN" x="-350" y="0"/><use xlink:href="#UNKNOWN" x="0" y="0"/><use xlink:href="#UNKNOWN" x="350" y="0"/><use xlink:href="#UNKNOWN" x="-350" y="350"/><use xlink:href="#UNKNOWN" x="0" y="350"/><use xlink:href="#UNKNOWN" x="350" y="350"/></pattern><rect x="0" y="0" width="100%" height="100%" fill="url(#pattern_UNKNOWN)"/></g><g fi:class="KUsePattern" transform="matrix(1 0 0 1 20 20)" opacity="0.19"><pattern id="pattern_UNKNOWN" width="350" height="350" patternUnits="userSpaceOnUse"><use xlink:href="#UNKNOWN" x="-350" y="-350"/><use xlink:href="#UNKNOWN" x="0" y="-350"/><use xlink:href="#UNKNOWN" x="350" y="-350"/><use xlink:href="#UNKNOWN" x="-350" y="0"/><use xlink:href="#UNKNOWN" x="0" y="0"/><use xlink:href="#UNKNOWN" x="350" y="0"/><use xlink:href="#UNKNOWN" x="-350" y="350"/><use xlink:href="#UNKNOWN" x="0" y="350"/><use xlink:href="#UNKNOWN" x="350" y="350"/></pattern><rect x="0" y="0" width="100%" height="100%" fill="url(#pattern_UNKNOWN)"/></g><g fi:class="KUsePattern" transform="matrix(1 0 0 1 40 40)" opacity="0.13"><pattern id="pattern_UNKNOWN" width="350" height="350" patternUnits="userSpaceOnUse"><use xlink:href="#UNKNOWN" x="-350" y="-350"/><use xlink:href="#UNKNOWN" x="0" y="-350"/><use xlink:href="#UNKNOWN" x="350" y="-350"/><use xlink:href="#UNKNOWN" x="-350" y="0"/><use xlink:href="#UNKNOWN" x="0" y="0"/><use xlink:href="#UNKNOWN" x="350" y="0"/><use xlink:href="#UNKNOWN" x="-350" y="350"/><use xlink:href="#UNKNOWN" x="0" y="350"/><use xlink:href="#UNKNOWN" x="350" y="350"/></pattern><rect x="0" y="0" width="100%" height="100%" fill="url(#pattern_UNKNOWN)"/></g><g fi:class="KUsePattern" transform="matrix(1 0 0 1 20 20)" opacity="0.25"><pattern id="pattern_UNKNOWN" width="350" height="350" patternUnits="userSpaceOnUse"><use xlink:href="#UNKNOWN" x="-350" y="-350"/><use xlink:href="#UNKNOWN" x="0" y="-350"/><use xlink:href="#UNKNOWN" x="350" y="-350"/><use xlink:href="#UNKNOWN" x="-350" y="0"/><use xlink:href="#UNKNOWN" x="0" y="0"/><use xlink:href="#UNKNOWN" x="350" y="0"/><use xlink:href="#UNKNOWN" x="-350" y="350"/><use xlink:href="#UNKNOWN" x="0" y="350"/><use xlink:href="#UNKNOWN" x="350" y="350"/></pattern><rect x="0" y="0" width="100%" height="100%" fill="url(#pattern_UNKNOWN)"/></g><g fi:class="KUsePattern" opacity="0.33"><pattern id="pattern_L1_26" width="350" height="350" patternUnits="userSpaceOnUse"><use xlink:href="#L1_26" x="-350" y="-350"/><use xlink:href="#L1_26" x="0" y="-350"/><use xlink:href="#L1_26" x="350" y="-350"/><use xlink:href="#L1_26" x="-350" y="0"/><use xlink:href="#L1_26" x="0" y="0"/><use xlink:href="#L1_26" x="350" y="0"/><use xlink:href="#L1_26" x="-350" y="350"/><use xlink:href="#L1_26" x="0" y="350"/><use xlink:href="#L1_26" x="350" y="350"/></pattern><rect x="0" y="0" width="100%" height="100%" fill="url(#pattern_L1_26)"/></g><g fi:class="KUsePattern" transform="matrix(1 0 0 1 20 20)" opacity="0.33"><pattern id="pattern_UNKNOWN" width="350" height="350" patternUnits="userSpaceOnUse"><use xlink:href="#UNKNOWN" x="-350" y="-350"/><use xlink:href="#UNKNOWN" x="0" y="-350"/><use xlink:href="#UNKNOWN" x="350" y="-350"/><use xlink:href="#UNKNOWN" x="-350" y="0"/><use xlink:href="#UNKNOWN" x="0" y="0"/><use xlink:href="#UNKNOWN" x="350" y="0"/><use xlink:href="#UNKNOWN" x="-350" y="350"/><use xlink:href="#UNKNOWN" x="0" y="350"/><use xlink:href="#UNKNOWN" x="350" y="350"/></pattern><rect x="0" y="0" width="100%" height="100%" fill="url(#pattern_UNKNOWN)"/></g><g fi:class="KUsePattern" transform="matrix(1 0 0 1 20 20)" opacity="0.33"><pattern id="pattern_UNKNOWN" width="350" height="350" patternUnits="userSpaceOnUse"><use xlink:href="#UNKNOWN" x="-350" y="-350"/><use xlink:href="#UNKNOWN" x="0" y="-350"/><use xlink:href="#UNKNOWN" x="350" y="-350"/><use xlink:href="#UNKNOWN" x="-350" y="0"/><use xlink:href="#UNKNOWN" x="0" y="0"/><use xlink:href="#UNKNOWN" x="350" y="0"/><use xlink:href="#UNKNOWN" x="-350" y="350"/><use xlink:href="#UNKNOWN" x="0" y="350"/><use xlink:href="#UNKNOWN" x="350" y="350"/></pattern><rect x="0" y="0" width="100%" height="100%" fill="url(#pattern_UNKNOWN)"/></g><g fi:class="KUsePattern" transform="matrix(1 0 0 1 20 20)" opacity="0.33"><pattern id="pattern_UNKNOWN" width="350" height="350" patternUnits="userSpaceOnUse"><use xlink:href="#UNKNOWN" x="-350" y="-350"/><use xlink:href="#UNKNOWN" x="0" y="-350"/><use xlink:href="#UNKNOWN" x="350" y="-350"/><use xlink:href="#UNKNOWN" x="-350" y="0"/><use xlink:href="#UNKNOWN" x="0" y="0"/><use xlink:href="#UNKNOWN" x="350" y="0"/><use xlink:href="#UNKNOWN" x="-350" y="350"/><use xlink:href="#UNKNOWN" x="0" y="350"/><use xlink:href="#UNKNOWN" x="350" y="350"/></pattern><rect x="0" y="0" width="100%" height="100%" fill="url(#pattern_UNKNOWN)"/></g><g fi:class="KUsePattern" transform="matrix(1 0 0 1 20 20)" opacity="0.33"><pattern id="pattern_UNKNOWN" width="350" height="350" patternUnits="userSpaceOnUse"><use xlink:href="#UNKNOWN" x="-350" y="-350"/><use xlink:href="#UNKNOWN" x="0" y="-350"/><use xlink:href="#UNKNOWN" x="350" y="-350"/><use xlink:href="#UNKNOWN" x="-350" y="0"/><use xlink:href="#UNKNOWN" x="0" y="0"/><use xlink:href="#UNKNOWN" x="350" y="0"/><use xlink:href="#UNKNOWN" x="-350" y="350"/><use xlink:href="#UNKNOWN" x="0" y="350"/><use xlink:href="#UNKNOWN" x="350" y="350"/></pattern><rect x="0" y="0" width="100%" height="100%" fill="url(#pattern_UNKNOWN)"/></g><g fi:class="KUsePattern" transform="matrix(1 0 0 1 20 20)" opacity="0.33"><pattern id="pattern_UNKNOWN" width="350" height="350" patternUnits="userSpaceOnUse"><use xlink:href="#UNKNOWN" x="-350" y="-350"/><use xlink:href="#UNKNOWN" x="0" y="-350"/><use xlink:href="#UNKNOWN" x="350" y="-350"/><use xlink:href="#UNKNOWN" x="-350" y="0"/><use xlink:href="#UNKNOWN" x="0" y="0"/><use xlink:href="#UNKNOWN" x="350" y="0"/><use xlink:href="#UNKNOWN" x="-350" y="350"/><use xlink:href="#UNKNOWN" x="0" y="350"/><use xlink:href="#UNKNOWN" x="350" y="350"/></pattern><rect x="0" y="0" width="100%" height="100%" fill="url(#pattern_UNKNOWN)"/></g><g fi:class="KUsePattern" transform="matrix(1 0 0 1 20 20)" opacity="0.33"><pattern id="pattern_UNKNOWN" width="350" height="350" patternUnits="userSpaceOnUse"><use xlink:href="#UNKNOWN" x="-350" y="-350"/><use xlink:href="#UNKNOWN" x="0" y="-350"/><use xlink:href="#UNKNOWN" x="350" y="-350"/><use xlink:href="#UNKNOWN" x="-350" y="0"/><use xlink:href="#UNKNOWN" x="0" y="0"/><use xlink:href="#UNKNOWN" x="350" y="0"/><use xlink:href="#UNKNOWN" x="-350" y="350"/><use xlink:href="#UNKNOWN" x="0" y="350"/><use xlink:href="#UNKNOWN" x="350" y="350"/></pattern><rect x="0" y="0" width="100%" height="100%" fill="url(#pattern_UNKNOWN)"/></g><g fi:class="KUsePattern" transform="matrix(1 0 0 1 20 20)" opacity="0.33"><pattern id="pattern_UNKNOWN" width="350" height="350" patternUnits="userSpaceOnUse"><use xlink:href="#UNKNOWN" x="-350" y="-350"/><use xlink:href="#UNKNOWN" x="0" y="-350"/><use xlink:href="#UNKNOWN" x="350" y="-350"/><use xlink:href="#UNKNOWN" x="-350" y="0"/><use xlink:href="#UNKNOWN" x="0" y="0"/><use xlink:href="#UNKNOWN" x="350" y="0"/><use xlink:href="#UNKNOWN" x="-350" y="350"/><use xlink:href="#UNKNOWN" x="0" y="350"/><use xlink:href="#UNKNOWN" x="350" y="350"/></pattern><rect x="0" y="0" width="100%" height="100%" fill="url(#pattern_UNKNOWN)"/></g><g fi:class="KUsePattern" transform="matrix(1 0 0 1 20 20)" opacity="0.33"><pattern id="pattern_UNKNOWN" width="350" height="350" patternUnits="userSpaceOnUse"><use xlink:href="#UNKNOWN" x="-350" y="-350"/><use xlink:href="#UNKNOWN" x="0" y="-350"/><use xlink:href="#UNKNOWN" x="350" y="-350"/><use xlink:href="#UNKNOWN" x="-350" y="0"/><use xlink:href="#UNKNOWN" x="0" y="0"/><use xlink:href="#UNKNOWN" x="350" y="0"/><use xlink:href="#UNKNOWN" x="-350" y="350"/><use xlink:href="#UNKNOWN" x="0" y="350"/><use xlink:href="#UNKNOWN" x="350" y="350"/></pattern><rect x="0" y="0" width="100%" height="100%" fill="url(#pattern_UNKNOWN)"/></g></svg>